<?xml version="1.0" standalone="no"?>
<!DOCTYPE svg PUBLIC "-//W3C//DTD SVG 1.1//EN" "http://www.w3.org/Graphics/SVG/1.1/DTD/svg11.dtd" >
<svg>
<metadata>
Created by FontForge 20120731 at Mon Jul  1 19:14:15 2019
 By www
Copyright (c) 2010 Typodermic Fonts. This font is not freely distributable. Visit typodermic.com for more information.
</metadata>
<defs>
<font id="GGX88W01-Light" horiz-adv-x="578" >
  <font-face 
    font-family="GGX88W01-Light"
    font-weight="300"
    font-stretch="normal"
    units-per-em="1000"
    panose-1="2 11 4 3 3 6 2 2 0 4"
    ascent="800"
    descent="-200"
    x-height="513"
    cap-height="692"
    bbox="-190 -243 1162 957"
    underline-thickness="50"
    underline-position="-125"
    unicode-range="U+0017-2212"
  />
<missing-glyph horiz-adv-x="628" 
d="M309 85l-153 37l-33 -141l152 -36zM314 151q6 42 26.5 65t47.5 38t57.5 27t55.5 33t41.5 56t16.5 95q0 52 -26 90.5t-66 63.5t-88.5 37.5t-93.5 12.5q-82 0 -135 -44t-73 -128l144 -34q13 37 31 58.5t52 21.5q15 0 32 -4.5t31.5 -14t23.5 -25.5t9 -39q0 -35 -16.5 -57
t-41.5 -38t-54 -29t-54 -32t-41.5 -47t-16.5 -72zM147 -104q-101 0 -101 87v655q0 89 101 89h332q102 0 102 -89v-655q0 -87 -102 -87h-332z" />
    <glyph glyph-name=".notdef" horiz-adv-x="628" 
d="M309 85l-153 37l-33 -141l152 -36zM314 151q6 42 26.5 65t47.5 38t57.5 27t55.5 33t41.5 56t16.5 95q0 52 -26 90.5t-66 63.5t-88.5 37.5t-93.5 12.5q-82 0 -135 -44t-73 -128l144 -34q13 37 31 58.5t52 21.5q15 0 32 -4.5t31.5 -14t23.5 -25.5t9 -39q0 -35 -16.5 -57
t-41.5 -38t-54 -29t-54 -32t-41.5 -47t-16.5 -72zM147 -104q-101 0 -101 87v655q0 89 101 89h332q102 0 102 -89v-655q0 -87 -102 -87h-332z" />
    <glyph glyph-name=".null" horiz-adv-x="0" 
 />
    <glyph glyph-name="nonmarkingreturn" horiz-adv-x="333" 
 />
    <glyph glyph-name="uni0017" horiz-adv-x="290" 
 />
    <glyph glyph-name="space" unicode=" " horiz-adv-x="290" 
 />
    <glyph glyph-name="exclam" unicode="!" horiz-adv-x="232" 
d="M76 0v105h79v-105h-79zM96 164q-16 154 -19 275.5t-3 220.5v20t2 12h80q0 -5 0.5 -19.5t0.5 -31.5t0.5 -32.5t0.5 -21.5q0 -176 -21 -423h-41z" />
    <glyph glyph-name="quotedbl" unicode="&#x22;" horiz-adv-x="369" 
d="M68 432v260h64v-260h-64zM237 432v260h64v-260h-64z" />
    <glyph glyph-name="numbersign" unicode="#" 
d="M359 427h-121l-20 -161h122zM305 0l29 216h-122l-26 -216h-50l26 216h-104l6 50h104l20 161h-105l7 49h104l27 216h49l-26 -216h121l27 216h50l-26 -216h103l-7 -49h-102l-20 -161h104l-6 -50h-104l-27 -216h-52z" />
    <glyph glyph-name="dollar" unicode="$" 
d="M265 -57v41q-105 9 -154 61.5t-52 159.5h68q5 -83 38.5 -120.5t99.5 -43.5v277q-45 8 -81 21t-61 34t-38 52.5t-13 77.5q0 36 12.5 67.5t37 56t60.5 40t83 18.5v47h51v-47q90 -5 136.5 -58.5t52.5 -150.5h-67q-5 72 -36.5 109.5t-85.5 43.5v-261q53 -11 91.5 -26
t63 -36.5t36 -53t11.5 -75.5q0 -42 -14.5 -76.5t-41 -59t-64 -39.5t-82.5 -18v-41h-51zM316 41q63 5 98 40.5t35 92.5q0 66 -35 94.5t-98 36.5v-264zM265 629q-66 -6 -95.5 -39t-29.5 -84q0 -61 35.5 -90.5t89.5 -38.5v252z" />
    <glyph glyph-name="percent" unicode="%" horiz-adv-x="699" 
d="M155 388q30 0 46 32t16 111q0 78 -16 109.5t-46 31.5q-31 0 -47 -31.5t-16 -109.5q0 -79 16 -111t47 -32zM153 345q-57 0 -86 44t-29 143t29 141t86 42q54 0 85 -42.5t31 -139.5q0 -100 -29.5 -144t-86.5 -44zM73 -21l492 734h41l-492 -734h-41zM548 20q30 0 46 32
t16 111q0 78 -16 109.5t-46 31.5q-31 0 -47 -31.5t-16 -109.5q0 -79 16 -111t47 -32zM546 -23q-57 0 -86 44t-29 143t29 141t86 42q54 0 85 -42.5t31 -139.5q0 -100 -29.5 -144t-86.5 -44z" />
    <glyph glyph-name="ampersand" unicode="&#x26;" horiz-adv-x="580" 
d="M493 0l-57 75l-24 -29q-35 -38 -79.5 -54t-98.5 -16q-46 0 -83 14.5t-63.5 41.5t-40.5 65t-14 85q0 39 8 68.5t26.5 55t49 48t74.5 46.5q-29 38 -51.5 79.5t-22.5 93.5q0 36 12 62.5t33.5 44t50 26.5t61.5 9q72 0 113.5 -35.5t41.5 -110.5q0 -35 -11.5 -62.5t-30 -50
t-43.5 -40t-52 -31.5l139 -183q25 69 30 144h66q-3 -54 -15.5 -104.5t-35.5 -98.5l109 -143h-92zM227 351q-36 -17 -60 -34t-38.5 -37.5t-21 -44t-6.5 -52.5q0 -31 8.5 -57.5t25 -46.5t41.5 -31.5t58 -11.5q57 0 95.5 24t65.5 69zM254 433q48 24 79 55.5t31 80.5
q0 45 -22.5 63.5t-64.5 18.5q-38 0 -63 -20.5t-25 -62.5q0 -35 16.5 -64.5t48.5 -70.5z" />
    <glyph glyph-name="quotesingle" unicode="'" horiz-adv-x="200" 
d="M68 432v260h64v-260h-64z" />
    <glyph glyph-name="parenleft" unicode="(" horiz-adv-x="269" 
d="M225 -149q-78 99 -118 217t-40 246q0 121 38.5 233.5t119.5 211.5h58q-73 -106 -107 -217t-34 -229q0 -121 34.5 -237t106.5 -225h-58z" />
    <glyph glyph-name="parenright" unicode=")" horiz-adv-x="269" 
d="M-14 -149q72 109 106.5 225t34.5 237q0 118 -34 229t-107 217h58q81 -99 119.5 -211.5t38.5 -233.5q0 -128 -40 -246t-118 -217h-58z" />
    <glyph glyph-name="asterisk" unicode="*" horiz-adv-x="435" 
d="M309 333l-92 125l-91 -126l-42 29l93 128l-146 46l16 47l144 -48v158h52v-158l144 48l15 -47l-146 -46l93 -128z" />
    <glyph glyph-name="plus" unicode="+" horiz-adv-x="556" 
d="M250 124v207h-206v54h206v206h54v-206h207v-54h-207v-207h-54z" />
    <glyph glyph-name="comma" unicode="," horiz-adv-x="249" 
d="M83 -85q46 12 47 85h-47v107h82v-85q0 -60 -17 -93.5t-65 -45.5v32z" />
    <glyph glyph-name="hyphen" unicode="-" horiz-adv-x="329" 
d="M42 292v58h246v-58h-246z" />
    <glyph glyph-name="period" unicode="." horiz-adv-x="249" 
d="M83 0v107h82v-107h-82z" />
    <glyph glyph-name="slash" unicode="/" horiz-adv-x="297" 
d="M0 0l235 692h62l-235 -692h-62z" />
    <glyph glyph-name="zero" unicode="0" 
d="M289 35q73 0 112.5 74t39.5 239q0 83 -10 141.5t-29.5 95.5t-48 54t-64.5 17t-64 -17t-47 -54t-29 -95.5t-10 -141.5t10 -142.5t29 -97.5t47 -55.5t64 -17.5zM287 -24q-107 0 -165.5 89t-58.5 284q0 97 15 166.5t43.5 113.5t70.5 65t95 21t95.5 -20.5t72 -64.5t45 -113
t15.5 -166q0 -96 -15.5 -167t-45 -117t-72 -68.5t-95.5 -22.5z" />
    <glyph glyph-name="one" unicode="1" 
d="M269 0v520h-138v52q42 0 70 2t45.5 13.5t25.5 36t10 68.5h60v-692h-73z" />
    <glyph glyph-name="two" unicode="2" 
d="M65 0q0 47 8.5 88t32.5 80t65.5 77t107.5 80q43 27 73 49t49.5 44.5t28.5 47.5t9 58q0 54 -34.5 91t-108.5 37q-82 0 -116 -43t-36 -137h-70q0 65 15 111t43 75.5t69 43t92 13.5q47 0 87 -11.5t69 -35t45.5 -59.5t16.5 -85q0 -41 -11 -73.5t-35 -61.5t-62 -58t-91 -62
q-82 -51 -122 -99.5t-42 -105.5h364v-64h-447z" />
    <glyph glyph-name="three" unicode="3" 
d="M235 389q56 0 92 9t57 25.5t29 41t8 54.5q0 66 -36.5 101.5t-99.5 35.5q-64 0 -102.5 -44t-38.5 -119h-68q0 50 14.5 91t42 70t66.5 45t89 16q42 0 79 -13t65 -38t44 -61t16 -82q0 -66 -32 -101t-92 -52q63 -13 103.5 -58t40.5 -115q0 -51 -17 -92t-47.5 -69t-73 -43
t-94.5 -15q-48 0 -87.5 16t-68 45t-44 71t-15.5 95h71q0 -81 40.5 -124t107.5 -43q69 0 111.5 42t42.5 118q0 72 -46.5 106t-156.5 34v53z" />
    <glyph glyph-name="four" unicode="4" 
d="M382 591l-242 -366h242v366zM381 0v168h-312v64l300 460h85v-467h74v-57h-74v-168h-73z" />
    <glyph glyph-name="five" unicode="5" 
d="M140 178q2 -30 11.5 -55.5t27 -45t44 -30.5t62.5 -11q75 0 114.5 49.5t39.5 134.5q0 78 -37 119.5t-106 41.5q-54 0 -90 -24.5t-63 -84.5h-75l14 420h405v-62h-339l-10 -288q33 57 76 78t97 21q43 0 80 -14.5t64 -42.5t42 -68.5t15 -92.5q0 -56 -16.5 -101.5t-46.5 -78
t-72 -50t-92 -17.5q-45 0 -84 15t-68.5 41.5t-47 63.5t-19.5 82h74z" />
    <glyph glyph-name="six" unicode="6" 
d="M429 542q-8 57 -39.5 85.5t-82.5 28.5q-84 0 -125.5 -72t-44.5 -228q30 45 76 70.5t103 25.5q43 0 79 -15.5t62.5 -45t41 -72t14.5 -96.5q0 -53 -16 -98.5t-44.5 -78.5t-68.5 -51.5t-88 -18.5q-231 0 -231 347q0 104 15 178.5t46 122t76.5 69.5t107.5 22q81 0 130.5 -44
t59.5 -129h-71zM138 263q2 -112 41.5 -170t115.5 -58q33 0 60 14t46 39t29.5 59t10.5 73q0 81 -39 127.5t-105 46.5q-54 0 -97 -35.5t-62 -95.5z" />
    <glyph glyph-name="seven" unicode="7" 
d="M176 0q6 82 27.5 168t56 168t79.5 156.5t99 134.5h-380v65h461v-57q-56 -59 -103 -134.5t-82.5 -159.5t-57 -171.5t-25.5 -169.5h-75z" />
    <glyph glyph-name="eight" unicode="8" 
d="M289 36q73 0 112 42.5t39 117.5q0 29 -8.5 54.5t-26.5 44.5t-47 30t-69 11q-41 0 -69.5 -11t-46.5 -30t-26.5 -44.5t-8.5 -54.5q0 -75 39 -117.5t112 -42.5zM419 524q0 61 -35 96t-95 35t-95.5 -35t-35.5 -96q0 -23 6 -46t21 -41.5t40 -30t64 -11.5q38 0 63 11.5t40 30
t21 41.5t6 46zM372 372q33 -5 59.5 -20.5t45 -39t28.5 -53.5t10 -63q0 -100 -57.5 -160t-168.5 -60q-54 0 -96.5 16t-71.5 44.5t-44 68.5t-15 88q0 67 38 115t107 61q-32 6 -54 23t-36 39.5t-20 48.5t-6 51q0 41 15 75t41 58t62.5 37.5t79.5 13.5q46 0 82.5 -13.5t62 -37.5
t39 -57.5t13.5 -73.5q0 -25 -6 -51t-19.5 -48.5t-35.5 -39t-53 -22.5z" />
    <glyph glyph-name="nine" unicode="9" 
d="M149 149q7 -60 39 -87t83 -27q82 0 124.5 71.5t45.5 228.5q-31 -45 -76.5 -70.5t-102.5 -25.5q-43 0 -79 15.5t-62.5 45t-41 72t-14.5 96.5q0 53 15.5 98.5t44 78.5t68.5 51.5t89 18.5q231 0 231 -347q0 -207 -61 -299.5t-184 -92.5q-81 0 -130.5 44t-60.5 129h72z
M440 427q-2 112 -41.5 170t-115.5 58q-33 0 -60 -14t-46 -38.5t-29.5 -58.5t-10.5 -73q0 -81 38.5 -127.5t104.5 -46.5q54 0 98 35t62 95z" />
    <glyph glyph-name="colon" unicode=":" horiz-adv-x="249" 
d="M83 0v107h82v-107h-82zM83 353v107h82v-107h-82z" />
    <glyph glyph-name="semicolon" unicode=";" horiz-adv-x="248" 
d="M83 -85q46 12 47 85h-47v107h82v-85q0 -60 -17 -93.5t-65 -45.5v32zM83 353v107h82v-107h-82z" />
    <glyph glyph-name="less" unicode="&#x3c;" horiz-adv-x="556" 
d="M44 331v54l467 230v-60l-407 -197l407 -197v-61z" />
    <glyph glyph-name="equal" unicode="=" horiz-adv-x="556" 
d="M44 225v54h467v-54h-467zM44 436v54h467v-54h-467z" />
    <glyph glyph-name="greater" unicode="&#x3e;" horiz-adv-x="556" 
d="M44 100v61l406 197l-406 197v60l467 -230v-54z" />
    <glyph glyph-name="question" unicode="?" horiz-adv-x="546" 
d="M239 169q0 28 1.5 50.5t5.5 40.5t11 33.5t17 30.5q17 27 42.5 45.5t49 38t40 45t16.5 66.5q0 37 -11 63t-31.5 42t-48 23.5t-60.5 7.5q-73 0 -111 -43t-40 -121h-73q0 106 58.5 165t163.5 59q107 0 169 -47t62 -145q0 -33 -7.5 -58.5t-21 -46t-34 -37.5t-45.5 -34
q-26 -17 -42.5 -36t-25.5 -40.5t-12.5 -46.5t-3.5 -55h-69zM235 0v105h79v-105h-79z" />
    <glyph glyph-name="at" unicode="@" horiz-adv-x="769" 
d="M678 -19q-34 -27 -104 -47.5t-176 -20.5q-87 0 -153.5 26.5t-111.5 74.5t-67.5 114t-22.5 144q0 82 24 152t70 121t111.5 79.5t149.5 28.5q67 0 126.5 -16.5t104.5 -53.5t71 -95t26 -141q0 -71 -15 -122t-39 -83.5t-53.5 -48t-57.5 -15.5q-37 0 -59 20t-24 52
q-18 -32 -47.5 -52t-83.5 -20q-38 0 -65 14.5t-44 38.5t-25.5 55t-8.5 64q0 50 13.5 93.5t38 75t59.5 49.5t78 18q19 0 37.5 -4.5t33.5 -16t26 -32t16 -51.5l16 93h58l-47 -254q-5 -15 -5 -40q0 -26 10.5 -35.5t24.5 -9.5q18 0 37 11.5t34.5 36t26 63t10.5 93.5
q0 74 -20 124t-56 81t-86.5 44t-111.5 13q-72 0 -127.5 -27t-93.5 -72t-57.5 -104.5t-19.5 -123.5q0 -145 77.5 -225.5t225.5 -80.5q85 0 151.5 14.5t101.5 39.5zM358 136q27 0 50 13t40 36.5t27 56.5t10 73q0 33 -7.5 55t-20 35.5t-28.5 19.5t-34 6q-57 0 -92.5 -45.5
t-35.5 -135.5q0 -50 20.5 -82t70.5 -32z" />
    <glyph glyph-name="A" unicode="A" horiz-adv-x="630" 
d="M543 0l-63 169h-330l-66 -169h-82l271 692h87l268 -692h-85zM316 604l-144 -370h285z" />
    <glyph glyph-name="B" unicode="B" horiz-adv-x="654" 
d="M78 0v692h314q102 0 150 -47.5t48 -125.5q0 -32 -9.5 -57t-25 -43.5t-35 -29.5t-40.5 -15q23 -5 46.5 -17t42 -32.5t30 -51.5t11.5 -75q0 -92 -60 -145t-186 -53h-286zM370 64q85 0 124.5 38t39.5 101q0 71 -40 102.5t-103 31.5h-238v-273h217zM389 400q126 0 126 116
q0 54 -30.5 82.5t-106.5 28.5h-225v-227h236z" />
    <glyph glyph-name="C" unicode="C" horiz-adv-x="668" 
d="M630 238q-10 -59 -34.5 -107.5t-61 -83t-84 -53t-104.5 -18.5q-65 0 -120.5 23t-96 68.5t-64 113.5t-23.5 157q0 88 21.5 157.5t61.5 118.5t96.5 75t126.5 26q62 0 112 -19.5t86 -53t57.5 -79.5t26.5 -98h-78q-6 40 -23.5 73.5t-44 57.5t-61 37.5t-74.5 13.5
q-112 0 -170 -79.5t-58 -225.5q0 -74 16 -129.5t45 -93t70.5 -56.5t91.5 -19q84 0 137 50.5t71 143.5h78z" />
    <glyph glyph-name="D" unicode="D" horiz-adv-x="674" 
d="M339 64q106 0 163 77t57 212q0 140 -60.5 207t-175.5 67h-169v-563h185zM78 0v692h255q67 0 123 -23.5t96.5 -67t63 -106.5t22.5 -142t-20.5 -144t-58 -111.5t-90 -72t-116.5 -25.5h-275z" />
    <glyph glyph-name="E" unicode="E" horiz-adv-x="615" 
d="M78 0v692h484v-65h-408v-231h380v-65h-380v-264h424v-67h-500z" />
    <glyph glyph-name="F" unicode="F" horiz-adv-x="571" 
d="M156 318v-318h-78v692h468v-65h-390v-242h350v-67h-350z" />
    <glyph glyph-name="G" unicode="G" horiz-adv-x="716" 
d="M589 0q0 35 -0.5 70.5t-0.5 72.5q-11 -33 -31 -63.5t-49.5 -53.5t-69.5 -36.5t-91 -13.5q-70 0 -126.5 29.5t-96 80.5t-61 118.5t-21.5 142.5q0 77 20.5 144t61.5 117t101.5 78.5t140.5 28.5q58 0 108.5 -17.5t89 -49t62 -75t28.5 -94.5h-78q-3 38 -21.5 69.5t-47 54
t-65 35t-76.5 12.5q-58 0 -103.5 -22.5t-77 -63t-48 -97t-16.5 -123.5q0 -59 15.5 -113.5t46 -96.5t75 -67t102.5 -25t100 21.5t69 56.5t40 80.5t13 92.5h-202v64h275v-357h-66z" />
    <glyph glyph-name="H" unicode="H" horiz-adv-x="689" 
d="M533 0v339h-377v-339h-78v692h78v-287h377v287h78v-692h-78z" />
    <glyph glyph-name="I" unicode="I" horiz-adv-x="243" 
d="M82 0v692h79v-692h-79z" />
    <glyph glyph-name="J" unicode="J" horiz-adv-x="517" 
d="M361 692h78v-505q0 -48 -14 -86.5t-41 -66.5t-67.5 -43t-93.5 -15q-97 0 -150 53t-53 162v39h71v-36q0 -154 132 -154q73 0 105.5 39t32.5 114v499z" />
    <glyph glyph-name="K" unicode="K" horiz-adv-x="634" 
d="M539 0l-245 354l-139 -139v-215h-77v692h77v-382l372 382h102l-280 -280l285 -412h-95z" />
    <glyph glyph-name="L" unicode="L" horiz-adv-x="550" 
d="M78 0v692h78v-624h386v-68h-464z" />
    <glyph glyph-name="M" unicode="M" horiz-adv-x="799" 
d="M645 0v578l-206 -578h-79l-207 577v-577h-73v692h116l205 -595l205 595h112v-692h-73z" />
    <glyph glyph-name="N" unicode="N" horiz-adv-x="689" 
d="M540 0l-390 572v-572h-73v692h85l378 -562v562h73v-692h-73z" />
    <glyph glyph-name="O" unicode="O" horiz-adv-x="704" 
d="M353 43q109 0 173 73t64 221q0 152 -59.5 230t-177.5 78t-178.5 -78t-60.5 -229q0 -150 60.5 -222.5t178.5 -72.5zM353 -24q-155 0 -236 92t-81 272q0 88 21 157.5t61.5 118t99.5 74t135 25.5t134.5 -25.5t98.5 -74.5t60.5 -119t20.5 -159q0 -183 -79 -272t-235 -89z" />
    <glyph glyph-name="P" unicode="P" horiz-adv-x="616" 
d="M78 0v692h293q48 0 86.5 -17t66 -47t42 -70.5t14.5 -86.5q0 -47 -14.5 -86t-42 -67t-66 -43.5t-86.5 -15.5h-215v-259h-78zM360 322q37 0 65.5 11.5t47.5 31.5t28.5 47.5t9.5 60.5t-10 61t-29 48.5t-47.5 32.5t-64.5 12h-204v-305h204z" />
    <glyph glyph-name="Q" unicode="Q" horiz-adv-x="704" 
d="M527 -95l-54 89q-56 -18 -120 -18q-155 0 -236 92t-81 272q0 88 21 157.5t61.5 118t99.5 74t135 25.5t134.5 -25.5t98.5 -74.5t60.5 -119t20.5 -159q0 -115 -33.5 -191t-96.5 -121l72 -120h-82zM335 225h82l81 -136q45 35 68.5 96t23.5 152q0 152 -59.5 230t-177.5 78
t-178.5 -78t-60.5 -229q0 -150 60.5 -222.5t178.5 -72.5q45 0 83 12z" />
    <glyph glyph-name="R" unicode="R" horiz-adv-x="664" 
d="M520 0v180q0 29 -6.5 51.5t-22.5 37.5t-44 22.5t-71 7.5h-222v-299h-76v692h333q46 0 83.5 -13.5t64 -38.5t40.5 -60t14 -77q0 -64 -35.5 -111.5t-101.5 -59.5q66 -9 93 -42.5t27 -99.5v-190h-76zM390 363q40 0 68.5 11t46.5 29t26.5 42t8.5 51q0 61 -35 96t-107 35h-244
v-264h236z" />
    <glyph glyph-name="S" unicode="S" horiz-adv-x="613" 
d="M489 488q-1 160 -190 160q-90 0 -132 -33.5t-42 -90.5q0 -44 19.5 -70t51.5 -40.5t72.5 -21t83 -13.5t83 -17t72.5 -31t51.5 -57t19.5 -94q0 -48 -19.5 -86t-53 -64t-79 -40t-97.5 -14q-145 0 -216.5 57.5t-76.5 173.5h76q2 -85 55.5 -126t152.5 -41q84 0 133.5 37.5
t49.5 103.5q0 62 -34 90.5t-103 38.5q-80 11 -139 23.5t-97.5 35.5t-57 59.5t-18.5 95.5q0 39 15 74t45.5 61t76.5 41t108 15q127 0 195.5 -59t68.5 -168h-74z" />
    <glyph glyph-name="T" unicode="T" horiz-adv-x="545" 
d="M235 0v627h-230v65h535v-65h-228v-627h-77z" />
    <glyph glyph-name="U" unicode="U" horiz-adv-x="678" 
d="M524 692h80v-462q0 -127 -68.5 -190.5t-201.5 -63.5q-120 0 -190 60.5t-70 185.5v470h79v-464q0 -93 47.5 -140t132.5 -47q191 0 191 189v462z" />
    <glyph glyph-name="V" unicode="V" horiz-adv-x="580" 
d="M254 0l-252 692h83l206 -578l206 578h81l-253 -692h-71z" />
    <glyph glyph-name="W" unicode="W" horiz-adv-x="852" 
d="M581 0l-157 563l-157 -563h-74l-188 692h83l144 -562l151 562h82l155 -562l144 562h79l-186 -692h-76z" />
    <glyph glyph-name="X" unicode="X" horiz-adv-x="591" 
d="M494 0l-198 291l-201 -291h-92l247 353l-235 339h92l189 -277l189 277h91l-235 -335l248 -357h-95z" />
    <glyph glyph-name="Y" unicode="Y" horiz-adv-x="586" 
d="M256 0v284l-256 408h92l204 -329l199 329h91l-252 -409v-283h-78z" />
    <glyph glyph-name="Z" unicode="Z" horiz-adv-x="553" 
d="M20 0v67l417 560h-407v65h504v-62l-418 -563h418v-67h-514z" />
    <glyph glyph-name="bracketleft" unicode="[" horiz-adv-x="298" 
d="M87 -136v886h200v-53h-135v-782h135v-51h-200z" />
    <glyph glyph-name="backslash" unicode="\" horiz-adv-x="297" 
d="M236 0l-236 692h63l234 -692h-61z" />
    <glyph glyph-name="bracketright" unicode="]" horiz-adv-x="294" 
d="M6 -136v51h136v782h-136v53h201v-886h-201z" />
    <glyph glyph-name="asciicircum" unicode="^" horiz-adv-x="464" 
d="M362 493l-130 140l-131 -140h-80l184 199h53l184 -199h-80z" />
    <glyph glyph-name="underscore" unicode="_" horiz-adv-x="481" 
d="M-3 -123v44h488v-44h-488z" />
    <glyph glyph-name="grave" unicode="`" horiz-adv-x="386" 
d="M65 701l35 60l221 -144l-23 -39z" />
    <glyph glyph-name="a" unicode="a" horiz-adv-x="535" 
d="M399 278q-11 -15 -47.5 -18.5t-93.5 -11.5q-38 -5 -66.5 -11.5t-47 -18.5t-28 -31.5t-9.5 -49.5q0 -48 27 -72t90 -24q33 0 63.5 10t54.5 28.5t39 45.5t17 62zM403 0q-1 2 -2 16t-1.5 30t-0.5 30.5v17.5q-19 -47 -70 -77.5t-120 -30.5q-94 0 -134.5 38.5t-40.5 104.5
q0 49 16 80t45 49t70 26.5t91 13.5q66 8 102 16t39 32q0 60 -31.5 91.5t-104.5 31.5q-74 0 -106.5 -33t-35.5 -90h-69q1 40 12.5 73t36.5 57t65.5 37.5t99.5 13.5q58 0 97.5 -13.5t64 -39.5t35.5 -63.5t11 -86.5v-324h-69z" />
    <glyph glyph-name="b" unicode="b" horiz-adv-x="573" 
d="M301 47q72 0 118 53t46 155q0 106 -42.5 157t-121.5 51q-42 0 -73 -16.5t-51 -45.5t-30 -67.5t-10 -83.5q0 -48 12.5 -86t35 -64t52 -39.5t64.5 -13.5zM67 0v701h72v-312q12 37 32.5 63.5t45 43t52 24t54.5 7.5q49 0 89 -18.5t68.5 -53t43.5 -84t15 -111.5
q0 -66 -16.5 -117.5t-46 -86t-70.5 -52.5t-89 -18q-27 0 -54 6.5t-51 22.5t-43.5 42t-30.5 64v-121h-71z" />
    <glyph glyph-name="c" unicode="c" horiz-adv-x="513" 
d="M483 186q-5 -45 -24.5 -81.5t-49.5 -63t-68.5 -41t-81.5 -14.5q-50 0 -91.5 17.5t-71 52t-46 86.5t-16.5 121t16.5 118.5t46.5 82t72.5 48t93.5 15.5q96 0 155 -53.5t66 -144.5h-74q-7 66 -46 101t-102 35q-34 0 -62.5 -11.5t-49 -35.5t-32 -62t-11.5 -92t11.5 -94.5
t32 -67.5t48 -40.5t60.5 -13.5q60 0 101 36t49 102h74z" />
    <glyph glyph-name="d" unicode="d" horiz-adv-x="573" 
d="M272 47q35 0 65 13.5t52.5 39.5t35 64t12.5 86q0 45 -10 83.5t-30 67.5t-51.5 45.5t-73.5 16.5q-78 0 -121 -51t-43 -157q0 -102 46 -155t118 -53zM436 0v121q-11 -38 -31 -64t-44 -42t-51.5 -22.5t-53.5 -6.5q-48 0 -89 18t-70.5 52.5t-46 86t-16.5 117.5
q0 62 15.5 111.5t43.5 84t68 53t89 18.5q27 0 54.5 -7.5t52 -24t45 -43t33.5 -63.5v312h72v-701h-71z" />
    <glyph glyph-name="e" unicode="e" horiz-adv-x="520" 
d="M492 151q-22 -79 -78.5 -122t-135.5 -43q-244 0 -244 280q0 59 16 107.5t46.5 82.5t74.5 52.5t100 18.5q115 0 171.5 -74.5t56.5 -212.5h-392q3 -96 46 -145.5t122 -49.5q51 0 88.5 27.5t52.5 78.5h76zM424 288q-2 85 -43.5 132t-111.5 47q-72 0 -114.5 -47t-45.5 -132
h315z" />
    <glyph glyph-name="f" unicode="f" horiz-adv-x="288" 
d="M81 0v460h-72v53h72v49q0 64 36 101.5t120 37.5h52v-61h-52q-48 0 -66 -20t-18 -58v-49h139v-53h-139v-460h-72z" />
    <glyph glyph-name="g" unicode="g" horiz-adv-x="577" 
d="M275 54q40 0 71.5 16t52.5 43.5t32 63.5t11 75q0 108 -46 159t-121 51q-76 0 -120 -50.5t-44 -156.5q0 -100 45.5 -150.5t118.5 -50.5zM440 127q-8 -36 -27 -60.5t-44 -40.5t-53 -23t-55 -7q-57 0 -99.5 19.5t-71 54t-42.5 83t-14 107.5q0 62 17 111.5t47.5 84t71.5 53
t89 18.5q27 0 54.5 -7t51.5 -22.5t43.5 -41.5t31.5 -64v121h73v-518q0 -58 -18.5 -102.5t-50 -74.5t-73 -45.5t-86.5 -15.5q-50 0 -90.5 15t-69 40.5t-44 59t-15.5 69.5h68q1 -27 13 -49t32.5 -37.5t47.5 -24.5t58 -9q30 0 57.5 11t49.5 32.5t35 53t13 72.5v137z" />
    <glyph glyph-name="h" unicode="h" horiz-adv-x="565" 
d="M430 0v324q0 42 -9 70t-26 44t-42 22.5t-56 6.5q-48 0 -79 -20t-49 -52.5t-25 -73.5t-7 -83v-238h-73v701h73v-312q9 36 28 62t43.5 43t53.5 25t58 8q41 0 75 -10t58 -31.5t37 -56t13 -82.5v-347h-73z" />
    <glyph glyph-name="i" unicode="i" horiz-adv-x="210" 
d="M69 0v513h73v-513h-73zM69 574v127h73v-127h-73z" />
    <glyph glyph-name="j" unicode="j" horiz-adv-x="253" 
d="M-22 -243v61h52q48 0 65.5 20t17.5 58v617h73v-617q0 -65 -36 -102t-120 -37h-52zM113 574v127h73v-127h-73z" />
    <glyph glyph-name="k" unicode="k" horiz-adv-x="517" 
d="M431 0l-163 270l-125 -117v-153h-74v701h74v-463l283 275h91l-196 -193l192 -320h-82z" />
    <glyph glyph-name="l" unicode="l" horiz-adv-x="210" 
d="M69 0v701h73v-701h-73z" />
    <glyph glyph-name="m" unicode="m" horiz-adv-x="824" 
d="M690 0v321q0 78 -30 111.5t-81 33.5q-28 0 -51.5 -11.5t-40.5 -32t-26.5 -47t-9.5 -56.5v-319h-73v320q0 43 -7 71t-21 44t-35 22.5t-49 6.5q-38 0 -62.5 -16.5t-39.5 -45t-21 -67t-6 -83.5v-252h-73v513h68v-128q23 79 66.5 110.5t97.5 31.5q59 0 94 -26.5t52 -94.5
q17 63 60.5 92t94.5 29q75 0 119.5 -44t44.5 -140v-343h-71z" />
    <glyph glyph-name="n" unicode="n" horiz-adv-x="568" 
d="M433 0v321q0 43 -9 70.5t-26 43.5t-42 22.5t-57 6.5q-48 0 -79.5 -17.5t-49.5 -48t-25.5 -72t-7.5 -88.5v-238h-73v513h69v-128q11 38 31 65t45.5 44t55.5 25t61 8q40 0 73 -10t57 -32t37 -57t13 -85v-343h-73z" />
    <glyph glyph-name="o" unicode="o" horiz-adv-x="567" 
d="M286 48q82 0 128 54.5t46 153.5q0 100 -44.5 154t-129.5 54t-131 -54t-46 -154q0 -99 46 -153.5t131 -54.5zM286 -14q-59 0 -106 20t-79.5 55.5t-49.5 85t-17 109.5q0 61 17.5 111t50.5 85.5t79.5 55t104.5 19.5q57 0 102.5 -19.5t78 -54.5t49.5 -85.5t17 -111.5
t-17.5 -110.5t-49.5 -85t-77.5 -55t-102.5 -19.5z" />
    <glyph glyph-name="p" unicode="p" horiz-adv-x="573" 
d="M301 49q79 0 121.5 50.5t42.5 158.5q0 99 -46 153.5t-118 54.5q-35 0 -64.5 -13.5t-52 -39.5t-35 -64t-12.5 -86q0 -45 10 -84t30 -68t51 -45.5t73 -16.5zM67 -243v756h71v-122q11 39 30.5 65t43.5 41.5t51 22.5t54 7q48 0 89 -18t70.5 -52.5t46 -86t16.5 -118.5
q0 -128 -57 -197t-159 -69q-27 0 -54.5 7.5t-52 24t-45 42.5t-32.5 63v-366h-72z" />
    <glyph glyph-name="q" unicode="q" horiz-adv-x="576" 
d="M273 49q42 0 73.5 16.5t51.5 45.5t30 68t10 84q0 48 -12.5 86t-35 64t-52.5 39.5t-65 13.5q-72 0 -118 -54.5t-46 -153.5q0 -108 43 -158.5t121 -50.5zM436 -243v366q-13 -37 -33.5 -63t-45 -42.5t-52 -24t-54.5 -7.5q-100 0 -158 69t-58 197q0 67 16.5 118.5t46 86
t70.5 52.5t90 18q26 0 53 -7t51.5 -22.5t44 -41.5t30.5 -65v122h71v-756h-72z" />
    <glyph glyph-name="r" unicode="r" horiz-adv-x="348" 
d="M60 0v513h69v-121q14 40 34.5 66t45.5 41.5t52 21.5t54 6h28v-76q-8 1 -17 2t-21 1q-44 0 -76 -15.5t-53.5 -41.5t-32 -61t-10.5 -74v-262h-73z" />
    <glyph glyph-name="s" unicode="s" horiz-adv-x="506" 
d="M393 358q-5 57 -37 84.5t-108 27.5q-63 0 -96.5 -17t-33.5 -64q0 -23 7.5 -37.5t24 -25t42.5 -17t64 -12.5q53 -9 94.5 -19t70 -26.5t43 -42.5t14.5 -68q0 -33 -13.5 -61t-40.5 -49t-67.5 -33t-94.5 -12q-111 0 -171 48.5t-62 130.5h75q2 -60 43.5 -91t113.5 -31
q42 0 70.5 9.5t45.5 24.5t24.5 33t7.5 36q0 22 -13 36.5t-35 24.5t-50.5 16.5t-59.5 12.5q-60 12 -99 25t-62.5 31t-33 41.5t-9.5 55.5q0 29 13 54.5t38 44t62.5 29t87.5 10.5q58 0 98 -11.5t65.5 -33.5t37.5 -53.5t14 -70.5h-70z" />
    <glyph glyph-name="t" unicode="t" horiz-adv-x="310" 
d="M113 0v460h-104v53h104v179h72v-179h107v-53h-107v-460h-72z" />
    <glyph glyph-name="u" unicode="u" horiz-adv-x="564" 
d="M432 0v126q-12 -39 -32 -65.5t-45 -43t-54 -24t-58 -7.5q-41 0 -74.5 11t-57 34.5t-36.5 60t-13 86.5v335h72v-293q0 -96 31 -134t102 -38q48 0 79.5 19.5t49.5 51t25.5 72t7.5 82.5v240h71v-513h-68z" />
    <glyph glyph-name="v" unicode="v" horiz-adv-x="499" 
d="M213 0l-206 513h83l163 -418l161 418h78l-203 -513h-76z" />
    <glyph glyph-name="w" unicode="w" horiz-adv-x="721" 
d="M479 0l-119 395l-119 -395h-75l-155 513h78l120 -414l113 414h75l118 -414l117 414h76l-155 -513h-74z" />
    <glyph glyph-name="x" unicode="x" horiz-adv-x="492" 
d="M396 0l-152 202l-150 -202h-89l196 260l-191 253h89l148 -198l148 198h86l-193 -253l198 -260h-90z" />
    <glyph glyph-name="y" unicode="y" horiz-adv-x="504" 
d="M115 -243l100 243l-210 513h83l167 -418l165 418h78l-307 -756h-76z" />
    <glyph glyph-name="z" unicode="z" horiz-adv-x="460" 
d="M20 0v57l324 397h-308v59h397v-59l-327 -394h334v-60h-420z" />
    <glyph glyph-name="braceleft" unicode="{" horiz-adv-x="329" 
d="M278 -137q-54 0 -86.5 10t-49.5 30.5t-22 51.5t-5 73q0 9 1 30t1.5 44.5t1.5 43.5t1 28q0 60 -17 84.5t-64 24.5v50q47 0 64 24.5t17 84.5q0 8 -1 28t-1.5 42.5t-1.5 43.5t-1 30q0 42 5 73.5t22 51.5t49.5 30t86.5 10h30v-48h-22q-36 0 -57.5 -6.5t-33 -20t-15 -34.5
t-3.5 -50q0 -38 3 -86t3 -88q0 -48 -23.5 -76.5t-61.5 -33.5q38 -7 61.5 -35t23.5 -76q0 -19 -1 -41.5t-2 -46t-2 -46t-1 -42.5q0 -29 3.5 -49.5t15 -34t33 -20t57.5 -6.5h22v-48h-30z" />
    <glyph glyph-name="bar" unicode="|" horiz-adv-x="213" 
d="M77 -130v897h59v-897h-59z" />
    <glyph glyph-name="braceright" unicode="}" horiz-adv-x="332" 
d="M22 -137v48h22q36 0 57 6.5t32.5 20t15 34t3.5 49.5q0 20 -1 42.5t-2 46t-2 46t-1 41.5q0 48 23.5 76t61.5 35q-38 5 -61.5 33.5t-23.5 76.5q0 40 3 88t3 86q0 29 -3.5 50t-15 34.5t-32.5 20t-57 6.5h-22v48h29q54 0 86.5 -10t50 -30t22.5 -51.5t5 -73.5q0 -9 -1 -30
t-1.5 -43.5t-1.5 -42.5t-1 -28q0 -60 17 -84.5t64 -24.5v-50q-47 0 -64 -24.5t-17 -84.5q0 -8 1 -28t1.5 -43.5t1.5 -44.5t1 -30q0 -42 -5 -73t-22.5 -51.5t-50 -30.5t-86.5 -10h-29z" />
    <glyph glyph-name="asciitilde" unicode="~" horiz-adv-x="556" 
d="M511 357q-29 -37 -61 -53.5t-77 -16.5q-28 0 -53 10.5t-49.5 23t-49 23t-51.5 10.5q-40 0 -69.5 -19.5t-56.5 -57.5v61q21 27 50 48.5t74 21.5q32 0 59 -10.5t52 -23t48.5 -23t47.5 -10.5q41 0 73 16t63 60v-60z" />
    <glyph glyph-name="uni00A0" unicode="&#xa0;" horiz-adv-x="290" 
 />
    <glyph glyph-name="exclamdown" unicode="&#xa1;" horiz-adv-x="232" 
d="M156.005 692v-104.993h-78.9951v104.993h78.9951zM136.006 528.01q15.999 -153.99 18.999 -275.483q3 -121.492 3 -220.486v-19.999q0 -8.99902 -2 -11.999h-79.9951q0 5 -0.5 19.499t-0.5 31.498t-0.5 32.498t-0.5 21.499q0 175.989 20.999 422.974h40.9971z" />
    <glyph glyph-name="cent" unicode="&#xa2;" horiz-adv-x="532" 
d="M256 0v72q-96 4 -153.5 73.5t-57.5 203.5q0 131 57.5 195.5t153.5 68.5v79h30v-79q91 -4 146.5 -55t61.5 -141h-76q-5 68 -42 98t-90 35v-414q54 5 90.5 42t42.5 94h74q-5 -41 -21.5 -76.5t-43.5 -62.5t-63 -43t-79 -17v-73h-30zM256 550q-62 -4 -100 -51.5t-38 -148.5
q0 -103 37.5 -156t100.5 -58v414z" />
    <glyph glyph-name="sterling" unicode="&#xa3;" 
d="M555 15q-9 -14 -33 -26.5t-72 -12.5q-42 0 -73 8.5t-57 18.5t-50 18.5t-52 8.5q-6 0 -13 -0.5t-14 -1.5q-34 -24 -73.5 -37.5t-76.5 -14.5v71q23 2 48.5 11t47 25t35.5 39.5t14 53.5q0 25 -5 46t-13 42h-113v58h86q-29 48 -49 95t-20 107q0 49 16.5 85t45.5 59.5t69 35
t87 11.5q51 0 91.5 -13.5t69 -43t43.5 -75.5t15 -111h-70q-2 94 -36 137t-116 43q-74 0 -108.5 -37t-34.5 -91q0 -57 18.5 -105.5t50.5 -96.5h186v-58h-158q9 -25 15.5 -48.5t6.5 -48.5q0 -41 -20 -79q29 0 51 -6t43 -13.5t44 -13.5t55 -6q47 0 73 11t46 36v-81z" />
    <glyph glyph-name="currency" unicode="&#xa4;" 
d="M412 189q-28 -19 -58 -30t-65 -11t-66.5 11t-56.5 30l-66 -70l-52 52l69 66q-19 26 -30 57.5t-11 66.5t11 65t30 58l-68 64l51 51l64 -67q55 41 125 41t123 -41l64 67l53 -51l-69 -64q41 -53 41 -123q0 -35 -10.5 -67t-30.5 -57l70 -66l-52 -52zM454 361q0 34 -13 63.5
t-35.5 52t-52.5 35.5t-64 13q-35 0 -65 -13t-52 -35.5t-35 -52t-13 -63.5q0 -35 13 -65t35 -52t52 -35t65 -13q34 0 64 13t52.5 35t35.5 52t13 65z" />
    <glyph glyph-name="yen" unicode="&#xa5;" 
d="M320 98v-98h-61v98h-166v45h166v101h-166v44h166v88l-215 316h68l177 -265l177 265h68l-214 -316v-88h166v-44h-166v-101h166v-45h-166z" />
    <glyph glyph-name="brokenbar" unicode="&#xa6;" horiz-adv-x="341" 
d="M141 -130v376h58v-376h-58zM141 415v352h58v-352h-58z" />
    <glyph glyph-name="section" unicode="&#xa7;" horiz-adv-x="561" 
d="M124 48q2 -66 42.5 -102.5t112.5 -36.5q42 0 70 11t45.5 28t24.5 37.5t7 40.5q0 26 -13 43t-35 28t-50 18t-58 13q-59 13 -98.5 28.5t-62.5 36t-32.5 47.5t-9.5 63q0 79 64 121q-33 23 -45.5 51t-12.5 73q0 33 13 62t38.5 50t62.5 33t86 12q58 0 98 -13t65 -38t37 -60.5
t14 -80.5h-70q-5 66 -36.5 97t-107.5 31q-62 0 -95.5 -20t-33.5 -73q0 -24 7.5 -41t24 -29t42.5 -20t64 -15q52 -12 93 -22.5t69 -28.5t42.5 -47.5t14.5 -78.5q0 -79 -54 -126q25 -18 36.5 -46t11.5 -73q0 -37 -13.5 -69t-40 -56t-67 -37.5t-94.5 -13.5q-108 0 -168.5 53.5
t-62.5 149.5h75zM376 174q31 18 44 44.5t13 52.5q0 33 -21 51.5t-53.5 29.5t-72.5 19t-77 19q-35 -9 -53 -29t-18 -58q0 -24 7 -41t23.5 -29t42.5 -20t64 -15q29 -6 54 -11.5t47 -12.5z" />
    <glyph glyph-name="dieresis" unicode="&#xa8;" horiz-adv-x="435" 
d="M65 614v111h96v-111h-96zM275 614v111h95v-111h-95z" />
    <glyph glyph-name="copyright" unicode="&#xa9;" horiz-adv-x="707" 
d="M353 -9q-68 0 -128.5 25t-105.5 71.5t-71 112.5t-26 147t26 147t71 112.5t105.5 71.5t128.5 25q69 0 129.5 -25t105.5 -71.5t71 -112.5t26 -147t-26 -147t-71 -112.5t-105.5 -71.5t-129.5 -25zM354 43q58 0 110 21.5t90 61.5t60.5 96t22.5 124q0 69 -22.5 125t-60.5 95.5
t-90 61.5t-110 22q-59 0 -110 -22.5t-89.5 -63t-60.5 -96t-22 -122.5t22 -122.5t60.5 -95.5t89.5 -62.5t110 -22.5zM513 298q-3 -25 -14.5 -48t-31 -40.5t-46.5 -28t-61 -10.5q-75 0 -118.5 49t-43.5 131q0 84 43.5 127t118.5 43q69 0 107.5 -33t46.5 -90h-51
q-5 34 -31.5 55t-71.5 21q-48 0 -80 -30t-32 -93t32 -96.5t80 -33.5q37 0 67.5 18t34.5 59h51z" />
    <glyph glyph-name="ordfeminine" unicode="&#xaa;" horiz-adv-x="359" 
d="M256 466q-6 -7 -20 -10t-32 -5t-37 -4.5t-35 -9t-26 -18t-10 -31.5q0 -26 15 -39.5t49 -13.5q17 0 33.5 5.5t30 16t22 25.5t9.5 33zM259 313q0 1 -0.5 8.5t-1 16.5t-1 17t-0.5 10q-10 -26 -38.5 -43t-66.5 -17q-51 0 -73.5 22t-22.5 57q0 27 8.5 43.5t24.5 26.5
t38.5 14.5t50.5 7.5q37 5 56 9.5t21 18.5q0 32 -16.5 49.5t-58.5 17.5t-58.5 -18t-18.5 -49h-38q0 43 26 71t91 28t90 -29.5t25 -82.5v-178h-37z" />
    <glyph glyph-name="guillemotleft" unicode="&#xab;" horiz-adv-x="510" 
d="M49 331l144 181l46 -50l-109 -131l109 -131l-46 -49zM264 331l144 181l46 -50l-109 -131l109 -131l-46 -49z" />
    <glyph glyph-name="logicalnot" unicode="&#xac;" horiz-adv-x="621" 
d="M508 0v446h-462v67h528v-513h-66z" />
    <glyph glyph-name="registered" unicode="&#xae;" horiz-adv-x="707" 
d="M353 -9q-68 0 -128.5 25t-105.5 71.5t-71 112.5t-26 147t26 147t71 112.5t105.5 71.5t128.5 25q69 0 129.5 -25t105.5 -71.5t71 -112.5t26 -147t-26 -147t-71 -112.5t-105.5 -71.5t-129.5 -25zM354 43q58 0 110 21.5t90 61.5t60.5 96t22.5 124q0 69 -22.5 125t-60.5 95.5
t-90 61.5t-110 22q-59 0 -110 -22.5t-89.5 -63t-60.5 -96t-22 -122.5t22 -122.5t60.5 -95.5t89.5 -62.5t110 -22.5zM383 365q31 0 44.5 15.5t13.5 36.5q0 51 -55 51h-100v-103h97zM432 192v83q0 26 -12 37t-47 11h-87v-131h-50v320h157q45 0 71 -25t26 -65q0 -27 -14 -48.5
t-41 -28.5q25 -5 35.5 -19.5t10.5 -45.5v-88h-49z" />
    <glyph glyph-name="macron" unicode="&#xaf;" horiz-adv-x="513" 
d="M65 643v66h383v-66h-383z" />
    <glyph glyph-name="degree" unicode="&#xb0;" horiz-adv-x="419" 
d="M209 370q-42 0 -72 13t-49 35.5t-28 52.5t-9 65t9 65t28 52.5t49 35t72 12.5t72 -12.5t49 -35t28 -52.5t9 -65t-9 -65t-28 -52.5t-49 -35.5t-72 -13zM209 417q29 0 49.5 9.5t33 26t18.5 38t6 46.5q0 50 -24.5 84t-82.5 34q-30 0 -50.5 -9t-33 -25t-18.5 -37.5t-6 -46.5
t6 -46.5t18.5 -38t33 -26t50.5 -9.5z" />
    <glyph glyph-name="plusminus" unicode="&#xb1;" horiz-adv-x="556" 
d="M250 124v207h-206v54h206v206h54v-206h207v-54h-207v-207h-54zM44 19v54h467v-54h-467z" />
    <glyph glyph-name="uni00B2" unicode="&#xb2;" horiz-adv-x="326" 
d="M48 358q0 24 4 44.5t15.5 40t32 39t53.5 42.5q20 14 33.5 25t22 21t12.5 20.5t4 24.5q0 55 -59 55q-32 0 -47.5 -17t-16.5 -59h-50q0 60 29 90.5t83 30.5q51 0 81.5 -24t30.5 -75q0 -20 -5.5 -36.5t-17 -31.5t-30.5 -30t-46 -33q-60 -40 -65 -83h165v-44h-229z" />
    <glyph glyph-name="uni00B3" unicode="&#xb3;" horiz-adv-x="326" 
d="M134 556q50 0 66.5 15.5t16.5 40.5q0 60 -56 60q-26 0 -42.5 -18t-16.5 -50h-49q0 51 29.5 81t80.5 30q45 0 74.5 -25.5t29.5 -70.5q0 -28 -13.5 -47t-37.5 -30q28 -8 44.5 -30t16.5 -56q0 -54 -32.5 -82.5t-86.5 -28.5q-51 0 -80.5 30t-29.5 84h50q0 -35 17 -53t46 -18
q28 0 45.5 17.5t17.5 51.5q0 33 -19.5 47.5t-70.5 14.5v37z" />
    <glyph glyph-name="acute" unicode="&#xb4;" horiz-adv-x="386" 
d="M88 578l-23 39l221 144l35 -60z" />
    <glyph glyph-name="mu" unicode="&#xb5;" horiz-adv-x="534" 
d="M417 0v126q-11 -39 -30.5 -65.5t-45 -43t-54.5 -24t-59 -7.5q-38 0 -66 11.5t-42 45.5v-286h-73v756h73v-298q0 -91 31.5 -129t100.5 -38q48 0 79.5 19.5t50 51t25.5 72t7 82.5v240h72v-513h-69z" />
    <glyph glyph-name="paragraph" unicode="&#xb6;" horiz-adv-x="564" 
d="M424 -104v767h-183v-767h-63v585q-39 3 -64 14.5t-39.5 27.5t-20.5 35t-6 38q0 25 9.5 46.5t29.5 37.5t51 25.5t74 9.5h319l-45 -53v-766h-62z" />
    <glyph glyph-name="periodcentered" unicode="&#xb7;" horiz-adv-x="249" 
d="M83 323v108h82v-108h-82z" />
    <glyph glyph-name="cedilla" unicode="&#xb8;" horiz-adv-x="215" 
d="M65 -210q48 6 48 65h-48v78h85v-55q0 -48 -18 -81.5t-67 -39.5v33z" />
    <glyph glyph-name="uni00B9" unicode="&#xb9;" horiz-adv-x="337" 
d="M151 358v249h-70v36q22 0 36.5 2.5t23.5 9t13.5 18.5t6.5 31h42v-346h-52z" />
    <glyph glyph-name="ordmasculine" unicode="&#xba;" horiz-adv-x="388" 
d="M195 339q45 0 70.5 30.5t25.5 84.5t-24 84t-72 30t-72.5 -30t-24.5 -84t24.5 -84.5t72.5 -30.5zM195 305q-66 0 -102.5 41.5t-36.5 107.5q0 69 36.5 109t102.5 40q63 0 99.5 -40t36.5 -109q0 -67 -36.5 -108t-99.5 -41z" />
    <glyph glyph-name="guillemotright" unicode="&#xbb;" horiz-adv-x="510" 
d="M56 200l109 131l-109 131l46 50l144 -181l-144 -180zM271 200l109 131l-109 131l46 50l144 -181l-144 -180z" />
    <glyph glyph-name="onequarter" unicode="&#xbc;" horiz-adv-x="662" 
d="M107 358v249h-70v36q22 0 36.5 2.5t23.5 9t13.5 18.5t6.5 31h42v-346h-52zM39 -21l492 734h41l-492 -734h-41zM536 262l-96 -153h96v153zM535 -10v79h-145v46l138 221h59v-227h39v-40h-39v-79h-52z" />
    <glyph glyph-name="onehalf" unicode="&#xbd;" horiz-adv-x="664" 
d="M107 358v249h-70v36q22 0 36.5 2.5t23.5 9t13.5 18.5t6.5 31h42v-346h-52zM39 -21l492 734h41l-492 -734h-41zM398 -10q0 24 4 44.5t15.5 40t32 39t53.5 42.5q20 14 33.5 25t22 21t12.5 20.5t4 24.5q0 55 -59 55q-32 0 -47.5 -17t-16.5 -59h-50q0 60 29 90.5t83 30.5
q51 0 81.5 -24t30.5 -75q0 -20 -5.5 -36.5t-17 -31.5t-30.5 -30t-46 -33q-60 -40 -65 -83h165v-44h-229z" />
    <glyph glyph-name="threequarters" unicode="&#xbe;" horiz-adv-x="664" 
d="M124 556q50 0 66.5 15.5t16.5 40.5q0 60 -56 60q-26 0 -42.5 -18t-16.5 -50h-49q0 51 29.5 81t80.5 30q45 0 74.5 -25.5t29.5 -70.5q0 -28 -13.5 -47t-37.5 -30q28 -8 44.5 -30t16.5 -56q0 -54 -32.5 -82.5t-86.5 -28.5q-51 0 -80.5 30t-29.5 84h50q0 -35 17 -53t46 -18
q28 0 45.5 17.5t17.5 51.5q0 33 -19.5 47.5t-70.5 14.5v37zM52 -21l492 734h41l-492 -734h-41zM538 262l-96 -153h96v153zM537 -10v79h-145v46l138 221h59v-227h39v-40h-39v-79h-52z" />
    <glyph glyph-name="questiondown" unicode="&#xbf;" horiz-adv-x="546" 
d="M308.015 523.011q0 -27.999 -1.5 -50.4971q-1.5 -22.499 -5.5 -40.498q-3.99902 -17.999 -10.999 -33.498t-16.999 -30.498q-16.999 -26.998 -42.4971 -45.4971q-25.499 -18.499 -48.9971 -37.998q-23.499 -19.498 -39.998 -44.9971q-16.499 -25.498 -16.499 -66.4961
q0 -36.9971 11 -62.9961q10.999 -25.998 31.498 -41.9971q20.498 -15.999 47.9971 -23.499q27.498 -7.49902 60.4961 -7.49902q72.9951 0 110.993 42.9971q37.998 42.998 39.998 120.993h72.9951q0 -105.994 -58.4961 -164.99q-58.4971 -58.9961 -163.49 -58.9961
q-106.993 0 -168.99 46.9971q-61.9961 46.9971 -61.9961 144.991q0 32.998 7.5 58.4961q7.49902 25.498 20.998 45.9971q13.5 20.499 33.998 37.498q20.499 16.999 45.4971 33.998q25.999 16.999 42.498 35.9971q16.499 18.999 25.498 40.498q9 21.499 12.499 46.4971
q3.5 24.998 3.5 54.9971h68.9961zM312.015 692v-104.993h-78.9951v104.993h78.9951z" />
    <glyph glyph-name="Agrave" unicode="&#xc0;" horiz-adv-x="630" 
d="M543 0l-63 169h-330l-66 -169h-82l271 692h87l268 -692h-85zM316 604l-144 -370h285zM157 880l35 60l221 -144l-23 -39z" />
    <glyph glyph-name="Aacute" unicode="&#xc1;" horiz-adv-x="630" 
d="M543 0l-63 169h-330l-66 -169h-82l271 692h87l268 -692h-85zM316 604l-144 -370h285zM242 757l-23 39l221 144l35 -60z" />
    <glyph glyph-name="Acircumflex" unicode="&#xc2;" horiz-adv-x="630" 
d="M543 0l-63 169h-330l-66 -169h-82l271 692h87l268 -692h-85zM316 604l-144 -370h285zM316 907l-148 -143l-33 36l142 157h79l143 -157l-34 -36z" />
    <glyph glyph-name="Atilde" unicode="&#xc3;" horiz-adv-x="630" 
d="M543 0l-63 169h-330l-66 -169h-82l271 692h87l268 -692h-85zM316 604l-144 -370h285zM491 881q-18 -51 -46.5 -70.5t-60.5 -19.5q-21 0 -38.5 8.5t-33 18t-31 18t-32.5 8.5q-14 0 -29.5 -9.5t-26.5 -40.5l-51 27q18 48 42.5 65.5t56.5 17.5q23 0 41 -9t34 -19.5t31 -19.5
t32 -9q15 0 32 12t26 41z" />
    <glyph glyph-name="Adieresis" unicode="&#xc4;" horiz-adv-x="630" 
d="M543 0l-63 169h-330l-66 -169h-82l271 692h87l268 -692h-85zM316 604l-144 -370h285zM164 793v111h96v-111h-96zM374 793v111h95v-111h-95z" />
    <glyph glyph-name="Aring" unicode="&#xc5;" horiz-adv-x="630" 
d="M543 0l-63 169h-330l-66 -169h-82l271 692h87l268 -692h-85zM316 604l-144 -370h285zM421 857q0 -51 -24 -75.5t-81 -24.5q-104 0 -104 100q0 48 25 74t79 26q57 0 81 -26t24 -74zM382 857q0 31 -15.5 48t-50.5 17q-32 0 -48 -17t-16 -48q0 -65 64 -65q35 0 50.5 16.5
t15.5 48.5z" />
    <glyph glyph-name="AE" unicode="&#xc6;" horiz-adv-x="903" 
d="M399 0v170h-251l-63 -170h-83l258 692h598v-65h-382v-231h354v-65h-354v-264h398v-67h-475zM399 627h-88l-142 -392h230v392z" />
    <glyph glyph-name="Ccedilla" unicode="&#xc7;" horiz-adv-x="668" 
d="M630 238q-10 -59 -34.5 -107.5t-61 -83t-84 -53t-104.5 -18.5q-65 0 -120.5 23t-96 68.5t-64 113.5t-23.5 157q0 88 21.5 157.5t61.5 118.5t96.5 75t126.5 26q62 0 112 -19.5t86 -53t57.5 -79.5t26.5 -98h-78q-6 40 -23.5 73.5t-44 57.5t-61 37.5t-74.5 13.5
q-112 0 -170 -79.5t-58 -225.5q0 -74 16 -129.5t45 -93t70.5 -56.5t91.5 -19q84 0 137 50.5t71 143.5h78zM302 -210q48 6 48 65h-48v78h85v-55q0 -48 -18 -81.5t-67 -39.5v33z" />
    <glyph glyph-name="Egrave" unicode="&#xc8;" horiz-adv-x="615" 
d="M78 0v692h484v-65h-408v-231h380v-65h-380v-264h424v-67h-500zM159 880l35 60l221 -144l-23 -39z" />
    <glyph glyph-name="Eacute" unicode="&#xc9;" horiz-adv-x="615" 
d="M78 0v692h484v-65h-408v-231h380v-65h-380v-264h424v-67h-500zM244 757l-23 39l221 144l35 -60z" />
    <glyph glyph-name="Ecircumflex" unicode="&#xca;" horiz-adv-x="615" 
d="M78 0v692h484v-65h-408v-231h380v-65h-380v-264h424v-67h-500zM317 907l-148 -143l-33 36l142 157h79l143 -157l-34 -36z" />
    <glyph glyph-name="Edieresis" unicode="&#xcb;" horiz-adv-x="615" 
d="M78 0v692h484v-65h-408v-231h380v-65h-380v-264h424v-67h-500zM168 793v111h96v-111h-96zM378 793v111h95v-111h-95z" />
    <glyph glyph-name="Igrave" unicode="&#xcc;" horiz-adv-x="243" 
d="M82 0v692h79v-692h-79zM-36 880l35 60l221 -144l-23 -39z" />
    <glyph glyph-name="Iacute" unicode="&#xcd;" horiz-adv-x="243" 
d="M82 0v692h79v-692h-79zM49 757l-23 39l221 144l35 -60z" />
    <glyph glyph-name="Icircumflex" unicode="&#xce;" horiz-adv-x="243" 
d="M82 0v692h79v-692h-79zM122 907l-148 -143l-33 36l142 157h79l143 -157l-34 -36z" />
    <glyph glyph-name="Idieresis" unicode="&#xcf;" horiz-adv-x="243" 
d="M82 0v692h79v-692h-79zM-30 793v111h96v-111h-96zM180 793v111h95v-111h-95z" />
    <glyph glyph-name="Eth" unicode="&#xd0;" horiz-adv-x="625" 
d="M28 0v318h-23v56h23v318h255q67 0 123 -23.5t96.5 -67t63 -106.5t22.5 -142t-20.5 -144t-58 -111.5t-90 -72t-116.5 -25.5h-275zM289 64q106 0 163 77t57 212q0 140 -60.5 207t-175.5 67h-169v-253h164v-56h-164v-254h185z" />
    <glyph glyph-name="Ntilde" unicode="&#xd1;" horiz-adv-x="689" 
d="M540 0l-390 572v-572h-73v692h85l378 -562v562h73v-692h-73zM530 881q-18 -51 -46.5 -70.5t-60.5 -19.5q-21 0 -38.5 8.5t-33 18t-31 18t-32.5 8.5q-14 0 -29.5 -9.5t-26.5 -40.5l-51 27q18 48 42.5 65.5t56.5 17.5q23 0 41 -9t34 -19.5t31 -19.5t32 -9q15 0 32 12t26 41
z" />
    <glyph glyph-name="Ograve" unicode="&#xd2;" horiz-adv-x="704" 
d="M353 43q109 0 173 73t64 221q0 152 -59.5 230t-177.5 78t-178.5 -78t-60.5 -229q0 -150 60.5 -222.5t178.5 -72.5zM353 -24q-155 0 -236 92t-81 272q0 88 21 157.5t61.5 118t99.5 74t135 25.5t134.5 -25.5t98.5 -74.5t60.5 -119t20.5 -159q0 -183 -79 -272t-235 -89z
M192 880l35 60l221 -144l-23 -39z" />
    <glyph glyph-name="Oacute" unicode="&#xd3;" horiz-adv-x="704" 
d="M353 43q109 0 173 73t64 221q0 152 -59.5 230t-177.5 78t-178.5 -78t-60.5 -229q0 -150 60.5 -222.5t178.5 -72.5zM353 -24q-155 0 -236 92t-81 272q0 88 21 157.5t61.5 118t99.5 74t135 25.5t134.5 -25.5t98.5 -74.5t60.5 -119t20.5 -159q0 -183 -79 -272t-235 -89z
M278 757l-23 39l221 144l35 -60z" />
    <glyph glyph-name="Ocircumflex" unicode="&#xd4;" horiz-adv-x="704" 
d="M353 43q109 0 173 73t64 221q0 152 -59.5 230t-177.5 78t-178.5 -78t-60.5 -229q0 -150 60.5 -222.5t178.5 -72.5zM353 -24q-155 0 -236 92t-81 272q0 88 21 157.5t61.5 118t99.5 74t135 25.5t134.5 -25.5t98.5 -74.5t60.5 -119t20.5 -159q0 -183 -79 -272t-235 -89z
M351 907l-148 -143l-33 36l142 157h79l143 -157l-34 -36z" />
    <glyph glyph-name="Otilde" unicode="&#xd5;" horiz-adv-x="704" 
d="M353 43q109 0 173 73t64 221q0 152 -59.5 230t-177.5 78t-178.5 -78t-60.5 -229q0 -150 60.5 -222.5t178.5 -72.5zM353 -24q-155 0 -236 92t-81 272q0 88 21 157.5t61.5 118t99.5 74t135 25.5t134.5 -25.5t98.5 -74.5t60.5 -119t20.5 -159q0 -183 -79 -272t-235 -89z
M527 881q-18 -51 -46.5 -70.5t-60.5 -19.5q-21 0 -38.5 8.5t-33 18t-31 18t-32.5 8.5q-14 0 -29.5 -9.5t-26.5 -40.5l-51 27q18 48 42.5 65.5t56.5 17.5q23 0 41 -9t34 -19.5t31 -19.5t32 -9q15 0 32 12t26 41z" />
    <glyph glyph-name="Odieresis" unicode="&#xd6;" horiz-adv-x="704" 
d="M353 43q109 0 173 73t64 221q0 152 -59.5 230t-177.5 78t-178.5 -78t-60.5 -229q0 -150 60.5 -222.5t178.5 -72.5zM353 -24q-155 0 -236 92t-81 272q0 88 21 157.5t61.5 118t99.5 74t135 25.5t134.5 -25.5t98.5 -74.5t60.5 -119t20.5 -159q0 -183 -79 -272t-235 -89z
M199 793v111h96v-111h-96zM409 793v111h95v-111h-95z" />
    <glyph glyph-name="multiply" unicode="&#xd7;" horiz-adv-x="556" 
d="M423 173l-146 146l-146 -146l-38 39l146 146l-146 146l38 38l146 -146l146 146l39 -38l-146 -146l146 -146z" />
    <glyph glyph-name="Oslash" unicode="&#xd8;" horiz-adv-x="702" 
d="M131 -27l30 58q-126 90 -126 309q0 88 21 157.5t61.5 118t99.5 74t135 25.5q78 0 141 -29l30 59l44 -16l-34 -66q133 -97 133 -326q0 -183 -79 -272t-235 -89q-87 0 -153 32l-26 -51zM230 71q52 -28 122 -28q109 0 173 73t64 221q0 180 -91 258zM460 621q-45 24 -108 24
q-118 0 -178.5 -78t-60.5 -229q0 -167 81 -242z" />
    <glyph glyph-name="Ugrave" unicode="&#xd9;" horiz-adv-x="678" 
d="M524 692h80v-462q0 -127 -68.5 -190.5t-201.5 -63.5q-120 0 -190 60.5t-70 185.5v470h79v-464q0 -93 47.5 -140t132.5 -47q191 0 191 189v462zM180 880l35 60l221 -144l-23 -39z" />
    <glyph glyph-name="Uacute" unicode="&#xda;" horiz-adv-x="678" 
d="M524 692h80v-462q0 -127 -68.5 -190.5t-201.5 -63.5q-120 0 -190 60.5t-70 185.5v470h79v-464q0 -93 47.5 -140t132.5 -47q191 0 191 189v462zM265 757l-23 39l221 144l35 -60z" />
    <glyph glyph-name="Ucircumflex" unicode="&#xdb;" horiz-adv-x="678" 
d="M524 692h80v-462q0 -127 -68.5 -190.5t-201.5 -63.5q-120 0 -190 60.5t-70 185.5v470h79v-464q0 -93 47.5 -140t132.5 -47q191 0 191 189v462zM338 907l-148 -143l-33 36l142 157h79l143 -157l-34 -36z" />
    <glyph glyph-name="Udieresis" unicode="&#xdc;" horiz-adv-x="678" 
d="M524 692h80v-462q0 -127 -68.5 -190.5t-201.5 -63.5q-120 0 -190 60.5t-70 185.5v470h79v-464q0 -93 47.5 -140t132.5 -47q191 0 191 189v462zM186 793v111h96v-111h-96zM396 793v111h95v-111h-95z" />
    <glyph glyph-name="Yacute" unicode="&#xdd;" horiz-adv-x="586" 
d="M256 0v284l-256 408h92l204 -329l199 329h91l-252 -409v-283h-78zM220 757l-23 39l221 144l35 -60z" />
    <glyph glyph-name="Thorn" unicode="&#xde;" horiz-adv-x="616" 
d="M367 215q31 0 57.5 10.5t46 30t30 46.5t10.5 60q0 31 -10.5 58t-29.5 47.5t-45 32.5t-57 12h-213v-297h211zM156 150v-150h-78v692h78v-114h232q42 0 77 -17t60.5 -46.5t40 -69t14.5 -84.5q0 -46 -14.5 -84.5t-40.5 -66.5t-62.5 -44t-79.5 -16h-227z" />
    <glyph glyph-name="germandbls" unicode="&#xdf;" horiz-adv-x="585" 
d="M254 50q12 -2 23 -3t20 -1q37 0 67 12.5t51 35t32.5 53t11.5 66.5q0 76 -51.5 112t-136.5 36v48q42 1 70.5 9.5t46 23.5t24.5 36t7 47q0 61 -38.5 92t-101.5 31q-69 0 -106 -35t-37 -98v-515h-72v519q0 85 54 137t164 52q54 0 94 -13.5t66 -37t38.5 -55.5t12.5 -69
q0 -34 -8 -57.5t-21.5 -40t-32.5 -26.5t-40 -16q66 -18 103 -62.5t37 -113.5q0 -53 -15 -95.5t-43.5 -73t-69 -47t-91.5 -16.5q-18 0 -31.5 1.5t-26.5 4.5v59z" />
    <glyph glyph-name="agrave" unicode="&#xe0;" horiz-adv-x="535" 
d="M399 278q-11 -15 -47.5 -18.5t-93.5 -11.5q-38 -5 -66.5 -11.5t-47 -18.5t-28 -31.5t-9.5 -49.5q0 -48 27 -72t90 -24q33 0 63.5 10t54.5 28.5t39 45.5t17 62zM403 0q-1 2 -2 16t-1.5 30t-0.5 30.5v17.5q-19 -47 -70 -77.5t-120 -30.5q-94 0 -134.5 38.5t-40.5 104.5
q0 49 16 80t45 49t70 26.5t91 13.5q66 8 102 16t39 32q0 60 -31.5 91.5t-104.5 31.5q-74 0 -106.5 -33t-35.5 -90h-69q1 40 12.5 73t36.5 57t65.5 37.5t99.5 13.5q58 0 97.5 -13.5t64 -39.5t35.5 -63.5t11 -86.5v-324h-69zM108 701l35 60l221 -144l-23 -39z" />
    <glyph glyph-name="aacute" unicode="&#xe1;" horiz-adv-x="535" 
d="M399 278q-11 -15 -47.5 -18.5t-93.5 -11.5q-38 -5 -66.5 -11.5t-47 -18.5t-28 -31.5t-9.5 -49.5q0 -48 27 -72t90 -24q33 0 63.5 10t54.5 28.5t39 45.5t17 62zM403 0q-1 2 -2 16t-1.5 30t-0.5 30.5v17.5q-19 -47 -70 -77.5t-120 -30.5q-94 0 -134.5 38.5t-40.5 104.5
q0 49 16 80t45 49t70 26.5t91 13.5q66 8 102 16t39 32q0 60 -31.5 91.5t-104.5 31.5q-74 0 -106.5 -33t-35.5 -90h-69q1 40 12.5 73t36.5 57t65.5 37.5t99.5 13.5q58 0 97.5 -13.5t64 -39.5t35.5 -63.5t11 -86.5v-324h-69zM193 578l-23 39l221 144l35 -60z" />
    <glyph glyph-name="acircumflex" unicode="&#xe2;" horiz-adv-x="535" 
d="M399 278q-11 -15 -47.5 -18.5t-93.5 -11.5q-38 -5 -66.5 -11.5t-47 -18.5t-28 -31.5t-9.5 -49.5q0 -48 27 -72t90 -24q33 0 63.5 10t54.5 28.5t39 45.5t17 62zM403 0q-1 2 -2 16t-1.5 30t-0.5 30.5v17.5q-19 -47 -70 -77.5t-120 -30.5q-94 0 -134.5 38.5t-40.5 104.5
q0 49 16 80t45 49t70 26.5t91 13.5q66 8 102 16t39 32q0 60 -31.5 91.5t-104.5 31.5q-74 0 -106.5 -33t-35.5 -90h-69q1 40 12.5 73t36.5 57t65.5 37.5t99.5 13.5q58 0 97.5 -13.5t64 -39.5t35.5 -63.5t11 -86.5v-324h-69zM267 728l-148 -143l-33 36l142 157h79l143 -157
l-34 -36z" />
    <glyph glyph-name="atilde" unicode="&#xe3;" horiz-adv-x="535" 
d="M399 278q-11 -15 -47.5 -18.5t-93.5 -11.5q-38 -5 -66.5 -11.5t-47 -18.5t-28 -31.5t-9.5 -49.5q0 -48 27 -72t90 -24q33 0 63.5 10t54.5 28.5t39 45.5t17 62zM403 0q-1 2 -2 16t-1.5 30t-0.5 30.5v17.5q-19 -47 -70 -77.5t-120 -30.5q-94 0 -134.5 38.5t-40.5 104.5
q0 49 16 80t45 49t70 26.5t91 13.5q66 8 102 16t39 32q0 60 -31.5 91.5t-104.5 31.5q-74 0 -106.5 -33t-35.5 -90h-69q1 40 12.5 73t36.5 57t65.5 37.5t99.5 13.5q58 0 97.5 -13.5t64 -39.5t35.5 -63.5t11 -86.5v-324h-69zM442 702q-18 -51 -46.5 -70.5t-60.5 -19.5
q-21 0 -38.5 8.5t-33 18t-31 18t-32.5 8.5q-14 0 -29.5 -9.5t-26.5 -40.5l-51 27q18 48 42.5 65.5t56.5 17.5q23 0 41 -9t34 -19.5t31 -19.5t32 -9q15 0 32 12t26 41z" />
    <glyph glyph-name="adieresis" unicode="&#xe4;" horiz-adv-x="535" 
d="M399 278q-11 -15 -47.5 -18.5t-93.5 -11.5q-38 -5 -66.5 -11.5t-47 -18.5t-28 -31.5t-9.5 -49.5q0 -48 27 -72t90 -24q33 0 63.5 10t54.5 28.5t39 45.5t17 62zM403 0q-1 2 -2 16t-1.5 30t-0.5 30.5v17.5q-19 -47 -70 -77.5t-120 -30.5q-94 0 -134.5 38.5t-40.5 104.5
q0 49 16 80t45 49t70 26.5t91 13.5q66 8 102 16t39 32q0 60 -31.5 91.5t-104.5 31.5q-74 0 -106.5 -33t-35.5 -90h-69q1 40 12.5 73t36.5 57t65.5 37.5t99.5 13.5q58 0 97.5 -13.5t64 -39.5t35.5 -63.5t11 -86.5v-324h-69zM115 614v111h96v-111h-96zM325 614v111h95v-111
h-95z" />
    <glyph glyph-name="aring" unicode="&#xe5;" horiz-adv-x="535" 
d="M399 278q-11 -15 -47.5 -18.5t-93.5 -11.5q-38 -5 -66.5 -11.5t-47 -18.5t-28 -31.5t-9.5 -49.5q0 -48 27 -72t90 -24q33 0 63.5 10t54.5 28.5t39 45.5t17 62zM403 0q-1 2 -2 16t-1.5 30t-0.5 30.5v17.5q-19 -47 -70 -77.5t-120 -30.5q-94 0 -134.5 38.5t-40.5 104.5
q0 49 16 80t45 49t70 26.5t91 13.5q66 8 102 16t39 32q0 60 -31.5 91.5t-104.5 31.5q-74 0 -106.5 -33t-35.5 -90h-69q1 40 12.5 73t36.5 57t65.5 37.5t99.5 13.5q58 0 97.5 -13.5t64 -39.5t35.5 -63.5t11 -86.5v-324h-69zM372 678q0 -51 -24 -75.5t-81 -24.5
q-104 0 -104 100q0 48 25 74t79 26q57 0 81 -26t24 -74zM333 678q0 31 -15.5 48t-50.5 17q-32 0 -48 -17t-16 -48q0 -65 64 -65q35 0 50.5 16.5t15.5 48.5z" />
    <glyph glyph-name="ae" unicode="&#xe6;" horiz-adv-x="886" 
d="M857 151q-22 -79 -78.5 -122t-135.5 -43q-164 0 -218 126q-23 -54 -77 -90t-139 -36q-94 0 -134.5 38.5t-40.5 104.5q0 49 16 80t45 49t70 26.5t91 13.5q66 8 102 16t39 32q0 60 -31.5 91.5t-104.5 31.5q-74 0 -106.5 -33t-35.5 -90h-69q1 40 12.5 73t36.5 57t65.5 37.5
t99.5 13.5q75 0 119 -21t66 -66q31 42 77.5 64.5t109.5 22.5q115 0 171.5 -74.5t56.5 -212.5h-392q2 -96 45.5 -145.5t122.5 -49.5q51 0 88.5 27.5t52.5 78.5h76zM399 278q-11 -15 -47.5 -18.5t-93.5 -11.5q-38 -5 -66.5 -11.5t-47 -18.5t-28 -31.5t-9.5 -49.5q0 -48 27 -72
t90 -24q33 0 63.5 10t54.5 28.5t39 45.5t17 62zM789 288q-2 85 -43.5 132t-111.5 47q-72 0 -114.5 -47t-45.5 -132h315z" />
    <glyph glyph-name="ccedilla" unicode="&#xe7;" horiz-adv-x="513" 
d="M483 186q-5 -45 -24.5 -81.5t-49.5 -63t-68.5 -41t-81.5 -14.5q-50 0 -91.5 17.5t-71 52t-46 86.5t-16.5 121t16.5 118.5t46.5 82t72.5 48t93.5 15.5q96 0 155 -53.5t66 -144.5h-74q-7 66 -46 101t-102 35q-34 0 -62.5 -11.5t-49 -35.5t-32 -62t-11.5 -92t11.5 -94.5
t32 -67.5t48 -40.5t60.5 -13.5q60 0 101 36t49 102h74zM219 -210q48 6 48 65h-48v78h85v-55q0 -48 -18 -81.5t-67 -39.5v33z" />
    <glyph glyph-name="egrave" unicode="&#xe8;" horiz-adv-x="520" 
d="M492 151q-22 -79 -78.5 -122t-135.5 -43q-244 0 -244 280q0 59 16 107.5t46.5 82.5t74.5 52.5t100 18.5q115 0 171.5 -74.5t56.5 -212.5h-392q3 -96 46 -145.5t122 -49.5q51 0 88.5 27.5t52.5 78.5h76zM424 288q-2 85 -43.5 132t-111.5 47q-72 0 -114.5 -47t-45.5 -132
h315zM106 701l35 60l221 -144l-23 -39z" />
    <glyph glyph-name="eacute" unicode="&#xe9;" horiz-adv-x="520" 
d="M492 151q-22 -79 -78.5 -122t-135.5 -43q-244 0 -244 280q0 59 16 107.5t46.5 82.5t74.5 52.5t100 18.5q115 0 171.5 -74.5t56.5 -212.5h-392q3 -96 46 -145.5t122 -49.5q51 0 88.5 27.5t52.5 78.5h76zM424 288q-2 85 -43.5 132t-111.5 47q-72 0 -114.5 -47t-45.5 -132
h315zM191 578l-23 39l221 144l35 -60z" />
    <glyph glyph-name="ecircumflex" unicode="&#xea;" horiz-adv-x="520" 
d="M492 151q-22 -79 -78.5 -122t-135.5 -43q-244 0 -244 280q0 59 16 107.5t46.5 82.5t74.5 52.5t100 18.5q115 0 171.5 -74.5t56.5 -212.5h-392q3 -96 46 -145.5t122 -49.5q51 0 88.5 27.5t52.5 78.5h76zM424 288q-2 85 -43.5 132t-111.5 47q-72 0 -114.5 -47t-45.5 -132
h315zM265 728l-148 -143l-33 36l142 157h79l143 -157l-34 -36z" />
    <glyph glyph-name="edieresis" unicode="&#xeb;" horiz-adv-x="520" 
d="M492 151q-22 -79 -78.5 -122t-135.5 -43q-244 0 -244 280q0 59 16 107.5t46.5 82.5t74.5 52.5t100 18.5q115 0 171.5 -74.5t56.5 -212.5h-392q3 -96 46 -145.5t122 -49.5q51 0 88.5 27.5t52.5 78.5h76zM424 288q-2 85 -43.5 132t-111.5 47q-72 0 -114.5 -47t-45.5 -132
h315zM108 614v111h96v-111h-96zM318 614v111h95v-111h-95z" />
    <glyph glyph-name="igrave" unicode="&#xec;" horiz-adv-x="270" 
d="M123 0v513h73v-513h-73zM1 701l35 60l221 -144l-23 -39z" />
    <glyph glyph-name="iacute" unicode="&#xed;" horiz-adv-x="266" 
d="M70 0v513h73v-513h-73zM34 578l-23 39l221 144l35 -60z" />
    <glyph glyph-name="icircumflex" unicode="&#xee;" horiz-adv-x="364" 
d="M146 0v513h73v-513h-73zM182 728l-148 -143l-33 36l142 157h79l143 -157l-34 -36z" />
    <glyph glyph-name="idieresis" unicode="&#xef;" horiz-adv-x="305" 
d="M117 0v513h73v-513h-73zM1 614v111h96v-111h-96zM211 614v111h95v-111h-95z" />
    <glyph glyph-name="eth" unicode="&#xf0;" horiz-adv-x="542" 
d="M480 688l-73 -46q51 -63 76 -153.5t25 -192.5q0 -89 -20.5 -148.5t-52.5 -95.5t-72.5 -51t-80.5 -15q-66 0 -113 20.5t-77 56t-44 84t-14 104.5q0 55 14.5 101.5t43 80t69.5 52.5t95 19q57 0 104.5 -26.5t73.5 -77.5q-6 54 -26 109t-54 103l-113 -72l-13 19l113 71
q-18 22 -38.5 39.5t-41.5 31.5h81q13 -9 25 -19t24 -23l76 48zM278 48q31 0 60 11.5t51 37.5t35.5 67.5t13.5 100.5q0 36 -12 67.5t-34 55.5t-52.5 38t-67.5 14q-81 0 -122 -52t-41 -142q0 -44 10.5 -80.5t31.5 -62.5t53 -40.5t74 -14.5z" />
    <glyph glyph-name="ntilde" unicode="&#xf1;" horiz-adv-x="568" 
d="M433 0v321q0 43 -9 70.5t-26 43.5t-42 22.5t-57 6.5q-48 0 -79.5 -17.5t-49.5 -48t-25.5 -72t-7.5 -88.5v-238h-73v513h69v-128q11 38 31 65t45.5 44t55.5 25t61 8q40 0 73 -10t57 -32t37 -57t13 -85v-343h-73zM469 702q-18 -51 -46.5 -70.5t-60.5 -19.5q-21 0 -38.5 8.5
t-33 18t-31 18t-32.5 8.5q-14 0 -29.5 -9.5t-26.5 -40.5l-51 27q18 48 42.5 65.5t56.5 17.5q23 0 41 -9t34 -19.5t31 -19.5t32 -9q15 0 32 12t26 41z" />
    <glyph glyph-name="ograve" unicode="&#xf2;" horiz-adv-x="567" 
d="M286 48q82 0 128 54.5t46 153.5q0 100 -44.5 154t-129.5 54t-131 -54t-46 -154q0 -99 46 -153.5t131 -54.5zM286 -14q-59 0 -106 20t-79.5 55.5t-49.5 85t-17 109.5q0 61 17.5 111t50.5 85.5t79.5 55t104.5 19.5q57 0 102.5 -19.5t78 -54.5t49.5 -85.5t17 -111.5
t-17.5 -110.5t-49.5 -85t-77.5 -55t-102.5 -19.5zM124 701l35 60l221 -144l-23 -39z" />
    <glyph glyph-name="oacute" unicode="&#xf3;" horiz-adv-x="567" 
d="M286 48q82 0 128 54.5t46 153.5q0 100 -44.5 154t-129.5 54t-131 -54t-46 -154q0 -99 46 -153.5t131 -54.5zM286 -14q-59 0 -106 20t-79.5 55.5t-49.5 85t-17 109.5q0 61 17.5 111t50.5 85.5t79.5 55t104.5 19.5q57 0 102.5 -19.5t78 -54.5t49.5 -85.5t17 -111.5
t-17.5 -110.5t-49.5 -85t-77.5 -55t-102.5 -19.5zM210 578l-23 39l221 144l35 -60z" />
    <glyph glyph-name="ocircumflex" unicode="&#xf4;" horiz-adv-x="567" 
d="M286 48q82 0 128 54.5t46 153.5q0 100 -44.5 154t-129.5 54t-131 -54t-46 -154q0 -99 46 -153.5t131 -54.5zM286 -14q-59 0 -106 20t-79.5 55.5t-49.5 85t-17 109.5q0 61 17.5 111t50.5 85.5t79.5 55t104.5 19.5q57 0 102.5 -19.5t78 -54.5t49.5 -85.5t17 -111.5
t-17.5 -110.5t-49.5 -85t-77.5 -55t-102.5 -19.5zM282 728l-148 -143l-33 36l142 157h79l143 -157l-34 -36z" />
    <glyph glyph-name="otilde" unicode="&#xf5;" horiz-adv-x="567" 
d="M286 48q82 0 128 54.5t46 153.5q0 100 -44.5 154t-129.5 54t-131 -54t-46 -154q0 -99 46 -153.5t131 -54.5zM286 -14q-59 0 -106 20t-79.5 55.5t-49.5 85t-17 109.5q0 61 17.5 111t50.5 85.5t79.5 55t104.5 19.5q57 0 102.5 -19.5t78 -54.5t49.5 -85.5t17 -111.5
t-17.5 -110.5t-49.5 -85t-77.5 -55t-102.5 -19.5zM458 702q-18 -51 -46.5 -70.5t-60.5 -19.5q-21 0 -38.5 8.5t-33 18t-31 18t-32.5 8.5q-14 0 -29.5 -9.5t-26.5 -40.5l-51 27q18 48 42.5 65.5t56.5 17.5q23 0 41 -9t34 -19.5t31 -19.5t32 -9q15 0 32 12t26 41z" />
    <glyph glyph-name="odieresis" unicode="&#xf6;" horiz-adv-x="567" 
d="M286 48q82 0 128 54.5t46 153.5q0 100 -44.5 154t-129.5 54t-131 -54t-46 -154q0 -99 46 -153.5t131 -54.5zM286 -14q-59 0 -106 20t-79.5 55.5t-49.5 85t-17 109.5q0 61 17.5 111t50.5 85.5t79.5 55t104.5 19.5q57 0 102.5 -19.5t78 -54.5t49.5 -85.5t17 -111.5
t-17.5 -110.5t-49.5 -85t-77.5 -55t-102.5 -19.5zM131 614v111h96v-111h-96zM341 614v111h95v-111h-95z" />
    <glyph glyph-name="divide" unicode="&#xf7;" horiz-adv-x="556" 
d="M44 331v54h467v-54h-467zM236 489v107h82v-107h-82zM236 119v107h82v-107h-82z" />
    <glyph glyph-name="oslash" unicode="&#xf8;" horiz-adv-x="563" 
d="M123 -44l29 63q-60 34 -90 95t-30 142q0 61 17.5 111t50.5 85.5t79.5 55t104.5 19.5q50 0 96 -17l27 58l37 -15l-28 -61q57 -34 86 -94t29 -142q0 -61 -17.5 -110.5t-49.5 -85t-77.5 -55t-102.5 -19.5q-28 0 -52 4.5t-45 11.5l-30 -61zM352 451q-26 13 -68 13
q-85 0 -131 -54t-46 -154q0 -124 72 -178zM214 59q15 -6 32.5 -8.5t37.5 -2.5q82 0 128 54.5t46 153.5q0 63 -18 106.5t-52 69.5z" />
    <glyph glyph-name="ugrave" unicode="&#xf9;" horiz-adv-x="564" 
d="M432 0v126q-12 -39 -32 -65.5t-45 -43t-54 -24t-58 -7.5q-41 0 -74.5 11t-57 34.5t-36.5 60t-13 86.5v335h72v-293q0 -96 31 -134t102 -38q48 0 79.5 19.5t49.5 51t25.5 72t7.5 82.5v240h71v-513h-68zM122 701l35 60l221 -144l-23 -39z" />
    <glyph glyph-name="uacute" unicode="&#xfa;" horiz-adv-x="564" 
d="M432 0v126q-12 -39 -32 -65.5t-45 -43t-54 -24t-58 -7.5q-41 0 -74.5 11t-57 34.5t-36.5 60t-13 86.5v335h72v-293q0 -96 31 -134t102 -38q48 0 79.5 19.5t49.5 51t25.5 72t7.5 82.5v240h71v-513h-68zM208 578l-23 39l221 144l35 -60z" />
    <glyph glyph-name="ucircumflex" unicode="&#xfb;" horiz-adv-x="564" 
d="M432 0v126q-12 -39 -32 -65.5t-45 -43t-54 -24t-58 -7.5q-41 0 -74.5 11t-57 34.5t-36.5 60t-13 86.5v335h72v-293q0 -96 31 -134t102 -38q48 0 79.5 19.5t49.5 51t25.5 72t7.5 82.5v240h71v-513h-68zM281 728l-148 -143l-33 36l142 157h79l143 -157l-34 -36z" />
    <glyph glyph-name="udieresis" unicode="&#xfc;" horiz-adv-x="564" 
d="M432 0v126q-12 -39 -32 -65.5t-45 -43t-54 -24t-58 -7.5q-41 0 -74.5 11t-57 34.5t-36.5 60t-13 86.5v335h72v-293q0 -96 31 -134t102 -38q48 0 79.5 19.5t49.5 51t25.5 72t7.5 82.5v240h71v-513h-68zM130 614v111h96v-111h-96zM340 614v111h95v-111h-95z" />
    <glyph glyph-name="yacute" unicode="&#xfd;" horiz-adv-x="504" 
d="M115 -243l100 243l-210 513h83l167 -418l165 418h78l-307 -756h-76zM180 578l-23 39l221 144l35 -60z" />
    <glyph glyph-name="thorn" unicode="&#xfe;" horiz-adv-x="573" 
d="M301 47q72 0 117.5 52t45.5 154q0 108 -44 159t-120 51q-75 0 -119.5 -52t-44.5 -161q0 -40 10.5 -76.5t31.5 -64.5t51.5 -45t71.5 -17zM67 -243v944h72v-310q10 39 28.5 65t42.5 41.5t51.5 22.5t55.5 7q52 0 93.5 -20t70 -56t43.5 -86.5t15 -111.5q0 -128 -57 -197.5
t-159 -69.5q-26 0 -54 7t-53.5 23.5t-46 42t-30.5 63.5v-365h-72z" />
    <glyph glyph-name="ydieresis" unicode="&#xff;" horiz-adv-x="504" 
d="M115 -243l100 243l-210 513h83l167 -418l165 418h78l-307 -756h-76zM101 614v111h96v-111h-96zM311 614v111h95v-111h-95z" />
    <glyph glyph-name="dotlessi" unicode="&#x131;" horiz-adv-x="210" 
d="M69 0v513h73v-513h-73z" />
    <glyph glyph-name="OE" unicode="&#x152;" horiz-adv-x="1048" 
d="M490 0q-63 -24 -137 -24q-155 0 -236 92t-81 272q0 88 21 157.5t61.5 118t99.5 74t135 25.5q36 0 68 -5.5t60 -17.5h513v-65h-418q76 -83 88 -231h301v-65h-298q-1 -173 -82 -264h424v-67h-519zM353 43q109 0 173 73t64 221q0 152 -59.5 230t-177.5 78t-178.5 -78
t-60.5 -229q0 -150 60.5 -222.5t178.5 -72.5z" />
    <glyph glyph-name="oe" unicode="&#x153;" horiz-adv-x="944" 
d="M912 151q-23 -79 -79 -122t-134 -43q-163 0 -209 135q-24 -63 -76.5 -99t-127.5 -36q-59 0 -106 20t-79.5 55.5t-49.5 85t-17 109.5q0 61 17.5 111t50.5 85.5t79.5 55t104.5 19.5q75 0 127.5 -35.5t77.5 -98.5q24 63 74 98.5t125 35.5q114 0 172 -76t58 -211h-392
q2 -96 44 -145.5t123 -49.5q48 0 87 27.5t54 78.5h76zM286 48q82 0 128 54.5t46 153.5q0 100 -44.5 154t-129.5 54t-131 -54t-46 -154q0 -99 46 -153.5t131 -54.5zM845 288q-3 85 -44 132t-113 47t-114 -47t-44 -132h315z" />
    <glyph glyph-name="Scaron" unicode="&#x160;" horiz-adv-x="613" 
d="M489 488q-1 160 -190 160q-90 0 -132 -33.5t-42 -90.5q0 -44 19.5 -70t51.5 -40.5t72.5 -21t83 -13.5t83 -17t72.5 -31t51.5 -57t19.5 -94q0 -48 -19.5 -86t-53 -64t-79 -40t-97.5 -14q-145 0 -216.5 57.5t-76.5 173.5h76q2 -85 55.5 -126t152.5 -41q84 0 133.5 37.5
t49.5 103.5q0 62 -34 90.5t-103 38.5q-80 11 -139 23.5t-97.5 35.5t-57 59.5t-18.5 95.5q0 39 15 74t45.5 61t76.5 41t108 15q127 0 195.5 -59t68.5 -168h-74zM268 764l-144 156l33 37l149 -143l148 143l35 -37l-144 -156h-77z" />
    <glyph glyph-name="scaron" unicode="&#x161;" horiz-adv-x="506" 
d="M393 358q-5 57 -37 84.5t-108 27.5q-63 0 -96.5 -17t-33.5 -64q0 -23 7.5 -37.5t24 -25t42.5 -17t64 -12.5q53 -9 94.5 -19t70 -26.5t43 -42.5t14.5 -68q0 -33 -13.5 -61t-40.5 -49t-67.5 -33t-94.5 -12q-111 0 -171 48.5t-62 130.5h75q2 -60 43.5 -91t113.5 -31
q42 0 70.5 9.5t45.5 24.5t24.5 33t7.5 36q0 22 -13 36.5t-35 24.5t-50.5 16.5t-59.5 12.5q-60 12 -99 25t-62.5 31t-33 41.5t-9.5 55.5q0 29 13 54.5t38 44t62.5 29t87.5 10.5q58 0 98 -11.5t65.5 -33.5t37.5 -53.5t14 -70.5h-70zM214 585l-144 156l33 37l149 -143l148 143
l35 -37l-144 -156h-77z" />
    <glyph glyph-name="Ydieresis" unicode="&#x178;" horiz-adv-x="586" 
d="M256 0v284l-256 408h92l204 -329l199 329h91l-252 -409v-283h-78zM143 793v111h96v-111h-96zM353 793v111h95v-111h-95z" />
    <glyph glyph-name="Zcaron" unicode="&#x17d;" horiz-adv-x="553" 
d="M20 0v67l417 560h-407v65h504v-62l-418 -563h418v-67h-514zM244 764l-144 156l33 37l149 -143l148 143l35 -37l-144 -156h-77z" />
    <glyph glyph-name="zcaron" unicode="&#x17e;" horiz-adv-x="460" 
d="M20 0v57l324 397h-308v59h397v-59l-327 -394h334v-60h-420zM199 585l-144 156l33 37l149 -143l148 143l35 -37l-144 -156h-77z" />
    <glyph glyph-name="florin" unicode="&#x192;" horiz-adv-x="587" 
d="M43 -180v63h40q51 0 88 30.5t47 102.5l53 389h-98v58h106l7 47q8 53 29 89.5t51 59t67 32.5t77 10h34v-64h-43q-51 0 -87 -30t-47 -102l-6 -42h107v-58h-116l-51 -374q-8 -59 -28 -99.5t-49 -65.5t-67 -35.5t-82 -10.5h-32z" />
    <glyph glyph-name="uni0237" unicode="&#x237;" horiz-adv-x="253" 
d="M-22 -243v61h52q48 0 65.5 20t17.5 58v617h73v-617q0 -65 -36 -102t-120 -37h-52z" />
    <glyph glyph-name="circumflex" unicode="&#x2c6;" horiz-adv-x="493" 
d="M246 728l-148 -143l-33 36l142 157h79l143 -157l-34 -36z" />
    <glyph glyph-name="caron" unicode="&#x2c7;" horiz-adv-x="494" 
d="M209 585l-144 156l33 37l149 -143l148 143l35 -37l-144 -156h-77z" />
    <glyph glyph-name="ring" unicode="&#x2da;" horiz-adv-x="339" 
d="M274 678q0 -51 -24 -75.5t-81 -24.5q-104 0 -104 100q0 48 25 74t79 26q57 0 81 -26t24 -74zM235 678q0 31 -15.5 48t-50.5 17q-32 0 -48 -17t-16 -48q0 -65 64 -65q35 0 50.5 16.5t15.5 48.5z" />
    <glyph glyph-name="tilde" unicode="&#x2dc;" horiz-adv-x="479" 
d="M414 702q-18 -51 -46.5 -70.5t-60.5 -19.5q-21 0 -38.5 8.5t-33 18t-31 18t-32.5 8.5q-14 0 -29.5 -9.5t-26.5 -40.5l-51 27q18 48 42.5 65.5t56.5 17.5q23 0 41 -9t34 -19.5t31 -19.5t32 -9q15 0 32 12t26 41z" />
    <glyph glyph-name="endash" unicode="&#x2013;" horiz-adv-x="485" 
d="M42 292v58h401v-58h-401z" />
    <glyph glyph-name="emdash" unicode="&#x2014;" horiz-adv-x="664" 
d="M42 292v58h580v-58h-580z" />
    <glyph glyph-name="quoteleft" unicode="&#x2018;" horiz-adv-x="237" 
d="M169 471q-57 14 -79 51.5t-22 106.5v91h101v-117h-57q1 -42 14.5 -64t42.5 -30v-38z" />
    <glyph glyph-name="quoteright" unicode="&#x2019;" horiz-adv-x="237" 
d="M68 509q28 8 42.5 30t14.5 64h-57v117h101v-91q0 -69 -21.5 -107t-79.5 -51v38z" />
    <glyph glyph-name="quotesinglbase" unicode="&#x201a;" horiz-adv-x="237" 
d="M68 -93q28 8 42.5 29.5t14.5 63.5h-57v118h101v-92q0 -69 -21.5 -106.5t-79.5 -50.5v38z" />
    <glyph glyph-name="quotedblleft" unicode="&#x201c;" horiz-adv-x="473" 
d="M169 471q-57 14 -79 51.5t-22 106.5v91h101v-117h-57q1 -42 14.5 -64t42.5 -30v-38zM406 471q-57 14 -79 51.5t-22 106.5v91h101v-117h-57q1 -42 14.5 -64t42.5 -30v-38z" />
    <glyph glyph-name="quotedblright" unicode="&#x201d;" horiz-adv-x="473" 
d="M68 509q28 8 42.5 30t14.5 64h-57v117h101v-91q0 -69 -21.5 -107t-79.5 -51v38zM305 509q28 8 42.5 30t14.5 64h-57v117h101v-91q0 -69 -21.5 -107t-79.5 -51v38z" />
    <glyph glyph-name="quotedblbase" unicode="&#x201e;" horiz-adv-x="473" 
d="M68 -93q28 8 42.5 29.5t14.5 63.5h-57v118h101v-92q0 -69 -21.5 -106.5t-79.5 -50.5v38zM305 -93q28 8 42.5 29.5t14.5 63.5h-57v118h101v-92q0 -69 -21.5 -106.5t-79.5 -50.5v38z" />
    <glyph glyph-name="dagger" unicode="&#x2020;" horiz-adv-x="527" 
d="M238 0v490h-182v47h182v155h58v-155h173v-47h-173v-490h-58z" />
    <glyph glyph-name="daggerdbl" unicode="&#x2021;" horiz-adv-x="527" 
d="M296 155v-155h-58v155h-182v47h182v288h-182v47h182v155h58v-155h173v-47h-173v-288h173v-47h-173z" />
    <glyph glyph-name="bullet" unicode="&#x2022;" horiz-adv-x="418" 
d="M348 358q0 -26 -11 -48.5t-29.5 -39t-44 -26t-54.5 -9.5q-30 0 -56 9.5t-45 26t-30 39t-11 48.5q0 27 11 49.5t30 39t45 25.5t56 9q29 0 54.5 -9t44 -25.5t29.5 -39t11 -49.5z" />
    <glyph glyph-name="ellipsis" unicode="&#x2026;" horiz-adv-x="1246" 
d="M83 0v107h82v-107h-82zM581 0v107h82v-107h-82zM1080 0v107h82v-107h-82z" />
    <glyph glyph-name="perthousand" unicode="&#x2030;" horiz-adv-x="873" 
d="M169 388q30 0 46 32t16 111q0 78 -16 109.5t-46 31.5q-31 0 -47 -31.5t-16 -109.5q0 -79 16 -111t47 -32zM167 345q-57 0 -86 44t-29 143t29 141t86 42q54 0 85 -42.5t31 -139.5q0 -100 -29.5 -144t-86.5 -44zM36 -21l492 734h41l-492 -734h-41zM449 20q30 0 46 32
t16 111q0 78 -16 109.5t-46 31.5q-31 0 -47 -31.5t-16 -109.5q0 -79 16 -111t47 -32zM447 -23q-57 0 -86 44t-29 143t29 141t86 42q54 0 85 -42.5t31 -139.5q0 -100 -29.5 -144t-86.5 -44zM722 20q30 0 46 32t16 111q0 78 -16 109.5t-46 31.5q-31 0 -47 -31.5t-16 -109.5
q0 -79 16 -111t47 -32zM720 -23q-57 0 -86 44t-29 143t29 141t86 42q54 0 85 -42.5t31 -139.5q0 -100 -29.5 -144t-86.5 -44z" />
    <glyph glyph-name="guilsinglleft" unicode="&#x2039;" horiz-adv-x="295" 
d="M49 331l144 181l46 -50l-109 -131l109 -131l-46 -49z" />
    <glyph glyph-name="guilsinglright" unicode="&#x203a;" horiz-adv-x="295" 
d="M56 200l109 131l-109 131l46 50l144 -181l-144 -180z" />
    <glyph glyph-name="fraction" unicode="&#x2044;" horiz-adv-x="153" 
d="M-190 -21l492 734h41l-492 -734h-41z" />
    <glyph glyph-name="uni2080" unicode="&#x2080;" horiz-adv-x="325" 
d="M164 20q30 0 46 32t16 111q0 78 -16 109.5t-46 31.5q-31 0 -47 -31.5t-16 -109.5q0 -79 16 -111t47 -32zM162 -23q-57 0 -86 44t-29 143t29 141t86 42q54 0 85 -42.5t31 -139.5q0 -100 -29.5 -144t-86.5 -44z" />
    <glyph glyph-name="uni2081" unicode="&#x2081;" horiz-adv-x="337" 
d="M151 -10v249h-70v36q22 0 36.5 2.5t23.5 9t13.5 18.5t6.5 31h42v-346h-52z" />
    <glyph glyph-name="uni2082" unicode="&#x2082;" horiz-adv-x="326" 
d="M48 -10q0 24 4 44.5t15.5 40t32 39t53.5 42.5q20 14 33.5 25t22 21t12.5 20.5t4 24.5q0 55 -59 55q-32 0 -47.5 -17t-16.5 -59h-50q0 60 29 90.5t83 30.5q51 0 81.5 -24t30.5 -75q0 -20 -5.5 -36.5t-17 -31.5t-30.5 -30t-46 -33q-60 -40 -65 -83h165v-44h-229z" />
    <glyph glyph-name="uni2083" unicode="&#x2083;" horiz-adv-x="326" 
d="M134 188q50 0 66.5 15.5t16.5 40.5q0 60 -56 60q-26 0 -42.5 -18t-16.5 -50h-49q0 51 29.5 81t80.5 30q45 0 74.5 -25.5t29.5 -70.5q0 -28 -13.5 -47t-37.5 -30q28 -8 44.5 -30t16.5 -56q0 -54 -32.5 -82.5t-86.5 -28.5q-51 0 -80.5 30t-29.5 84h50q0 -35 17 -53t46 -18
q28 0 45.5 17.5t17.5 51.5q0 33 -19.5 47.5t-70.5 14.5v37z" />
    <glyph glyph-name="uni2084" unicode="&#x2084;" horiz-adv-x="326" 
d="M196 262l-96 -153h96v153zM195 -10v79h-145v46l138 221h59v-227h39v-40h-39v-79h-52z" />
    <glyph glyph-name="Euro" unicode="&#x20ac;" 
d="M583 105q-38 -60 -99.5 -94.5t-139.5 -34.5q-53 0 -101.5 16.5t-88 48.5t-67 80.5t-38.5 112.5h-54l10 44h37q-1 13 -1.5 26t-0.5 27q0 31 3 58h-48l10 46h43q26 134 100 207t198 73q51 0 92 -13.5t79 -38.5l-35 -66q-31 28 -65 39t-71 11q-88 0 -143.5 -55t-74.5 -157
h272l-24 -46h-256q-1 -12 -1.5 -22t-0.5 -22q0 -18 1 -35.5t2 -31.5h199l-24 -44h-164q20 -95 77 -142.5t132 -47.5q114 0 176 98z" />
    <glyph glyph-name="trademark" unicode="&#x2122;" horiz-adv-x="778" 
d="M167 313v325h-103v54h262v-54h-102v-325h-57zM658 313v259l-98 -259l-104 266v-266h-56v379h70l90 -245l87 245h67v-379h-56z" />
    <glyph glyph-name="minus" unicode="&#x2212;" horiz-adv-x="556" 
d="M44 331v54h467v-54h-467z" />
    </font>
</defs>
</svg>
